<svg width="105" height="72" viewBox="0 0 105 72" fill="none" xmlns="http://www.w3.org/2000/svg">
<rect width="104.28" height="72" fill="white"/>
<g clip-path="url(#clip0_4084_24747)">
<path d="M34.6221 29.4227C34.5952 30.2283 34.697 31.033 34.9237 31.8064C35.1579 32.4684 35.4472 33.1095 35.7886 33.723C35.9032 33.905 35.9677 34.114 35.9755 34.329C35.9608 34.4938 35.9066 34.6528 35.8174 34.7922C35.7281 34.9316 35.6066 35.0474 35.463 35.1298L33.7813 36.2482C33.5741 36.3911 33.3307 36.4726 33.0792 36.4831C32.9273 36.4786 32.778 36.4432 32.6403 36.3789C32.5026 36.3146 32.3794 36.2229 32.2784 36.1094C31.9067 35.7398 31.5846 35.3234 31.3201 34.8708C31.0568 34.4206 30.7845 33.8992 30.5033 33.3066C28.4159 35.7677 25.7999 36.9983 22.6555 36.9983C20.4132 36.9983 18.6381 36.3594 17.3301 35.0817C16.0222 33.804 15.3682 32.0912 15.3682 29.9432C15.3682 27.6725 16.1779 25.8431 17.7973 24.4551C19.4167 23.067 21.5966 22.3739 24.3371 22.3757C25.2824 22.3784 26.2262 22.4488 27.1613 22.5865C28.1436 22.7254 29.1642 22.9193 30.223 23.1685V21.2092C30.223 19.184 29.8022 17.7604 28.9604 16.9382C28.1187 16.1161 26.6701 15.7005 24.6148 15.6916C23.6461 15.6949 22.6811 15.8123 21.7399 16.0413C20.7649 16.2749 19.8085 16.58 18.8783 16.9542C18.5757 17.093 18.2634 17.2098 17.9441 17.3039C17.8076 17.3438 17.667 17.368 17.525 17.376C17.1513 17.376 16.9644 17.0957 16.9644 16.5352V15.2272C16.9382 14.9044 17.0029 14.5808 17.1513 14.2929C17.3502 14.0471 17.607 13.8545 17.8987 13.7324C18.9751 13.2129 20.1022 12.8059 21.2621 12.5178C22.6185 12.167 24.0145 11.993 25.4156 12C28.5921 12 30.9197 12.7242 32.3985 14.1728C33.8774 15.6214 34.6177 17.8093 34.6194 20.7367L34.6221 29.4227ZM23.7846 33.4881C24.7236 33.4765 25.6542 33.3106 26.5393 32.997C27.5173 32.6635 28.3882 32.0746 29.0619 31.2912C29.4934 30.8019 29.805 30.2189 29.9721 29.5882C30.1604 28.8324 30.2501 28.0554 30.2391 27.2766V26.1528C29.4299 25.9609 28.611 25.813 27.7859 25.7097C26.9573 25.6038 26.1228 25.5494 25.2874 25.5468C23.5079 25.5468 22.1839 25.9027 21.3155 26.6146C20.447 27.3264 20.011 28.3541 20.0075 29.6977C20.0075 30.9433 20.3349 31.8856 20.9898 32.5245C21.6447 33.1633 22.5763 33.4846 23.7846 33.4881ZM45.2247 36.3843C44.8622 36.4099 44.5013 36.3161 44.197 36.1174C43.9112 35.8293 43.7163 35.4636 43.6365 35.0657L37.3769 14.4184C37.2591 14.0725 37.1812 13.7142 37.1446 13.3506C37.1316 13.2617 37.1396 13.171 37.1678 13.0858C37.1961 13.0005 37.2439 12.923 37.3074 12.8595C37.371 12.7959 37.4485 12.7481 37.5337 12.7199C37.619 12.6916 37.7097 12.6836 37.7986 12.6967H40.4146C40.7843 12.6651 41.1539 12.7591 41.4636 12.9636C41.7321 13.2593 41.9165 13.6215 41.9975 14.0126L46.482 31.673L50.6435 14.018C50.7689 13.4841 50.9398 13.1398 51.1587 12.9689C51.4766 12.7675 51.851 12.6739 52.2264 12.702H54.3752C54.7505 12.6749 55.1246 12.7684 55.443 12.9689C55.6583 13.1469 55.8291 13.4966 55.9555 14.018L60.1597 31.9025L64.7856 14.018C64.8655 13.6265 65.05 13.2639 65.3195 12.9689C65.63 12.7641 66.0006 12.67 66.3712 12.702H68.8457C68.9346 12.689 69.0253 12.6969 69.1106 12.7252C69.1959 12.7535 69.2734 12.8013 69.3369 12.8648C69.4004 12.9283 69.4482 13.0058 69.4765 13.0911C69.5048 13.1764 69.5127 13.2671 69.4997 13.356C69.4975 13.4968 69.4823 13.6371 69.4543 13.7751C69.4045 13.9964 69.3421 14.2148 69.2675 14.4291L62.821 35.0764C62.739 35.4735 62.5444 35.8386 62.2604 36.1281C61.9562 36.3268 61.5953 36.4205 61.2327 36.395H58.9425C58.5648 36.4281 58.1874 36.329 57.8747 36.1147C57.6002 35.8182 57.4208 35.4464 57.3595 35.047L53.2034 17.8591L49.0926 35.047C49.0313 35.4464 48.8519 35.8182 48.5774 36.1147C48.2643 36.3282 47.8872 36.4272 47.5097 36.395L45.2247 36.3843ZM79.5124 37.0864C78.1288 37.0875 76.7496 36.9308 75.4016 36.6192C74.3299 36.406 73.2925 36.0467 72.3185 35.5515C72.0156 35.4349 71.7571 35.226 71.5794 34.9544C71.4016 34.6828 71.3138 34.3622 71.3282 34.038V32.7033C71.3282 32.1454 71.5284 31.8652 71.9341 31.8652C72.1021 31.8665 72.2685 31.8982 72.4253 31.9586C72.5961 32.02 72.823 32.1134 73.1033 32.2255C74.0445 32.6445 75.0293 32.9578 76.0396 33.1598C77.0844 33.3772 78.1488 33.4872 79.2161 33.4881C80.8978 33.4881 82.1977 33.1927 83.116 32.6019C83.5501 32.3427 83.9069 31.9721 84.1496 31.5286C84.3922 31.0851 84.5118 30.5847 84.496 30.0794C84.506 29.7352 84.447 29.3925 84.3222 29.0716C84.1975 28.7506 84.0097 28.458 83.77 28.2108C83.2877 27.7126 82.3926 27.2454 81.0846 26.8094L77.2087 25.5949C75.2512 24.9703 73.8276 24.0662 72.9378 22.8828C72.0749 21.7749 71.6053 20.4113 71.6031 19.007C71.5814 17.9722 71.8308 16.9498 72.3265 16.0413C72.8083 15.1864 73.4596 14.4388 74.2404 13.8445C75.0753 13.2187 76.0181 12.7518 77.0219 12.4671C78.1149 12.1515 79.2476 11.9942 80.3853 12C80.986 12.001 81.586 12.0403 82.1817 12.1174C82.7903 12.1957 83.3669 12.2971 83.9115 12.4217C84.4453 12.5445 84.9632 12.6886 85.4303 12.8408C85.8168 12.9638 86.1919 13.1201 86.5514 13.3079C86.8602 13.469 87.1327 13.6916 87.3522 13.9619C87.5211 14.2265 87.6033 14.5373 87.5871 14.8508V16.1107C87.5871 16.6713 87.3843 16.9516 86.9785 16.9516C86.6184 16.9094 86.2696 16.7988 85.9508 16.6259C84.3308 15.9211 82.5788 15.5707 80.8124 15.5982C79.2855 15.5982 78.1021 15.8465 77.2621 16.343C76.4222 16.8395 76.0022 17.634 76.0022 18.7267C75.9964 19.0805 76.0646 19.4317 76.2025 19.7576C76.3404 20.0835 76.545 20.377 76.803 20.6192C77.3369 21.1318 78.3156 21.622 79.7393 22.09L83.5217 23.3046C85.4526 23.9292 86.8308 24.7861 87.6565 25.8752C88.4761 26.9471 88.9122 28.263 88.8951 29.6122C88.9119 30.6882 88.6712 31.7526 88.1931 32.7167C87.7271 33.6353 87.0656 34.4407 86.2551 35.0764C85.3716 35.7602 84.3648 36.2677 83.2895 36.5712C82.0618 36.9236 80.7896 37.0972 79.5124 37.0864Z" fill="#232F3E"/>
<path fill-rule="evenodd" clip-rule="evenodd" d="M84.5632 50.0674C75.7731 56.5512 63.0323 60 52.0587 60C36.6833 60 22.8348 54.317 12.3576 44.8542C11.5328 44.1121 12.2669 43.0978 13.2572 43.6717C24.5618 50.2516 38.5438 54.2129 52.9823 54.2129C63.3929 54.1624 73.691 52.0551 83.2846 48.012C84.7688 47.3847 86.01 48.9863 84.5632 50.0674Z" fill="#FF9900"/>
<path fill-rule="evenodd" clip-rule="evenodd" d="M88.2203 45.8896C87.0938 44.4509 80.7889 45.209 77.9567 45.548C77.0972 45.6521 76.9637 44.902 77.7378 44.3574C82.7695 40.8232 91.0124 41.8456 91.9707 43.0228C92.929 44.2 91.7171 52.4802 87.0031 56.4228C86.277 57.0315 85.5857 56.7058 85.9087 55.905C86.9684 53.257 89.3441 47.3311 88.2203 45.8896Z" fill="#FF9900"/>
</g>
<defs>
<clipPath id="clip0_4084_24747">
<rect width="80.275" height="48" fill="white" transform="translate(12 12)"/>
</clipPath>
</defs>
</svg>
