<svg width="221" height="48" viewBox="0 0 221 48" fill="none" xmlns="http://www.w3.org/2000/svg">
<path d="M111.5 36.5V35.5C113.8 35.2 114.1 34.9 113.7 33.5C113.2 32.1 112.5 30.1 111.7 27.8H103.9C103.3 29.5 102.8 31 102.3 32.5C101.5 34.8 101.8 35.2 104.6 35.4V36.4H96.5996V35.4C98.8996 35.1 99.3996 34.8 100.7 31.6L108.3 12.3L109.4 12C111.7 18.3 114.1 25.3 116.5 31.7C117.7 34.9 118.2 35.2 120.5 35.4V36.4H111.5V36.5ZM107.9 16.8C106.6 20 105.5 23.2 104.4 26.2H111.2L107.9 16.8Z" fill="#8A2432"/>
<path d="M140.799 36.4994V35.4994C142.999 35.2994 143.399 35.0994 143.399 32.4994V26.3994C143.399 23.7994 142.499 22.0994 140.199 22.0994C138.899 22.0994 137.499 22.7994 136.099 23.9994C136.199 24.3994 136.199 24.7994 136.199 25.4994V32.6994C136.199 34.9994 136.499 35.1994 138.599 35.4994V36.4994H130.699V35.4994C132.999 35.2994 133.299 35.0994 133.299 32.6994V26.3994C133.299 23.6994 132.299 22.1994 130.099 22.1994C128.599 22.1994 127.199 23.1994 126.099 24.0994V32.6994C126.099 35.0994 126.399 35.2994 128.199 35.4994V36.4994H120.399V35.4994C122.799 35.2994 123.199 35.0994 123.199 32.6994V25.0994C123.199 22.6994 123.099 22.5994 120.999 22.1994V21.3994C122.599 21.0994 124.499 20.5994 126.099 19.8994V22.8994C126.899 22.3994 127.699 21.6994 128.799 20.9994C129.799 20.3994 130.599 19.9994 131.799 19.9994C133.599 19.9994 135.099 21.0994 135.899 22.9994C136.999 22.1994 137.999 21.4994 138.999 20.8994C139.799 20.3994 140.699 19.8994 141.799 19.8994C144.699 19.8994 146.499 21.8994 146.499 25.4994V32.5994C146.499 35.0994 146.799 35.1994 148.899 35.3994V36.3994H140.799V36.4994Z" fill="#8A2432"/>
<path d="M160 36.4998V35.4998C162.1 35.2998 162.4 35.0998 162.4 32.6998V26.5998C162.4 23.5998 161.3 22.0998 158.8 22.0998C157.4 22.0998 156 22.7998 155 23.9998V32.7998C155 35.1998 155.2 35.3998 157.4 35.5998V36.5998H149.6V35.5998C151.8 35.3998 152.1 35.1998 152.1 32.7998V15.0998C152.1 12.7998 152 12.5998 149.6 12.3998V11.5998C151.4 11.2998 153.6 10.7998 155 10.2998V22.6998C156.3 21.3998 158.3 19.9998 160.3 19.9998C163.3 19.9998 165.4 21.8998 165.4 26.2998V32.6998C165.4 35.0998 165.7 35.2998 167.8 35.4998V36.4998H160Z" fill="#8A2432"/>
<path d="M180.399 33.3996C178.099 36.2996 175.499 36.9996 174.399 36.9996C169.899 36.9996 167.199 33.2996 167.199 29.1996C167.199 26.6996 168.099 24.3996 169.599 22.7996C171.099 21.0996 173.099 20.0996 174.999 20.0996C178.099 20.0996 180.499 22.7996 180.499 25.6996C180.499 26.3996 180.299 26.6996 179.699 26.8996C179.099 26.9996 174.499 27.3996 170.099 27.4996C170.099 32.4996 172.999 34.5996 175.599 34.5996C177.099 34.5996 178.499 33.9996 179.799 32.7996L180.399 33.3996ZM174.199 21.2996C172.499 21.2996 170.899 22.7996 170.399 25.7996C172.499 25.7996 174.499 25.7996 176.599 25.6996C177.299 25.6996 177.499 25.4996 177.499 24.9996C177.499 23.0996 176.199 21.2996 174.199 21.2996Z" fill="#8A2432"/>
<path d="M187.399 23.8998C188.499 22.0998 190.099 19.9998 191.899 19.9998C193.199 19.9998 193.999 20.9998 193.999 21.7998C193.999 22.4998 193.499 23.2998 192.799 23.5998C192.399 23.7998 191.999 23.6998 191.799 23.4998C191.299 22.8998 190.799 22.6998 190.299 22.6998C189.299 22.6998 188.199 23.7998 187.399 25.8998V32.5998C187.399 34.9998 187.599 35.1998 190.399 35.4998V36.4998H181.899V35.4998C184.199 35.2998 184.399 35.0998 184.399 32.5998V24.9998C184.399 22.5998 184.199 22.3998 182.099 22.0998V21.2998C183.899 20.9998 185.499 20.5998 187.299 19.7998L187.399 23.8998Z" fill="#8A2432"/>
<path d="M204.099 24.7C203.399 22.5 202.099 21.1 200.299 21.1C198.899 21.1 197.899 22.2 197.899 23.6C197.899 25.2 199.399 26.1 200.999 26.8C203.799 27.9 205.599 29.3 205.599 31.8C205.599 35.1 202.499 36.9 199.499 36.9C197.599 36.9 195.899 36.2 195.299 35.6C194.999 35.1 194.699 32.6 194.699 31.3L195.699 31.1C196.399 33.5 197.999 35.7 200.199 35.7C201.599 35.7 202.799 34.7 202.799 33.1C202.799 31.5 201.699 30.6 199.899 29.8C197.699 28.8 195.299 27.6 195.299 24.7C195.299 22.1 197.499 20 200.899 20C202.399 20 203.399 20.3 204.199 20.6C204.499 21.4 204.899 23.6 204.999 24.5L204.099 24.7Z" fill="#8A2432"/>
<path d="M214.3 36.4002C213.7 36.7002 213.1 36.9002 212.8 36.9002C210.5 36.9002 209.2 35.4002 209.2 32.5002V21.8002H206.7L206.6 21.4002L207.6 20.3002H209.3V17.6002L211.7 15.2002L212.2 15.3002V20.3002H216.4C216.7 20.7002 216.6 21.5002 216.2 21.7002H212V31.2002C212 34.2002 213.2 34.7002 214.1 34.7002C215 34.7002 215.9 34.3002 216.4 34.1002L216.7 35.1002L214.3 36.4002Z" fill="#8A2432"/>
<path d="M27.9998 13.6C25.7998 13.7 24.8998 14.3 24.7998 15.8C24.6998 16.8 24.5998 18.4 24.5998 21.8V24.8C24.5998 29.1 23.8998 32.3 21.7998 34.5C19.9998 36.2 17.5998 37 15.1998 37C13.0998 37 10.8998 36.5 9.2998 35.2C7.0998 33.5 5.9998 30.8 5.9998 26.5V17.3C5.9998 14 5.6998 13.8 2.7998 13.6V12.6H12.2998V13.6C9.3998 13.8 9.0998 14 9.0998 17.3V25.7C9.0998 31.6 11.4998 35 15.9998 35C21.2998 35 22.9998 30.6 22.9998 24.5V21.7C22.9998 18.3 22.8998 16.8 22.6998 15.6C22.4998 14.2 21.6998 13.7 19.0998 13.5V12.5H27.9998V13.6Z" fill="#231F20"/>
<path d="M47.7002 36.4996V35.4996C50.7002 35.1996 50.8002 34.9996 50.8002 31.0996L50.7002 16.0996H50.6002L41.6002 36.2996H40.9002L32.7002 16.6996H32.6002L32.0002 27.1996C31.9002 30.1996 31.9002 31.7996 31.9002 33.2996C32.0002 35.0996 32.9002 35.2996 35.3002 35.5996V36.5996H26.7002V35.5996C28.8002 35.2996 29.6002 34.8996 29.8002 33.3996C30.0002 32.0996 30.2002 30.4996 30.5002 26.6996L31.0002 18.9996C31.3002 14.1996 31.1002 14.0996 27.8002 13.6996V12.6996H33.8002L42.2002 30.9996L50.7002 12.5996H57.0002V13.5996C53.8002 13.8996 53.5002 13.9996 53.6002 17.7996L54.0002 31.0996C54.1002 34.9996 54.2002 35.1996 57.4002 35.4996V36.4996H47.7002Z" fill="#231F20"/>
<path d="M69.0002 36.8998C68.4002 36.8998 67.7002 36.5998 67.3002 36.1998C66.8002 35.6998 66.6002 35.1998 66.4002 34.4998C64.9002 35.4998 63.2002 36.8998 62.1002 36.8998C59.5002 36.8998 57.7002 34.6998 57.7002 32.3998C57.7002 30.5998 58.7002 29.4998 60.7002 28.7998C62.9002 28.0998 65.6002 27.0998 66.4002 26.3998V25.6998C66.4002 23.0998 65.1002 21.4998 63.3002 21.4998C62.6002 21.4998 62.0002 21.7998 61.6002 22.1998C61.1002 22.6998 60.8002 23.4998 60.5002 24.5998C60.4002 25.1998 59.9002 25.4998 59.4002 25.4998C58.7002 25.4998 57.8002 24.7998 57.8002 23.8998C57.8002 23.2998 58.3002 22.8998 59.0002 22.3998C60.0002 21.6998 62.4002 20.1998 64.5002 19.7998C65.6002 19.7998 66.7002 20.0998 67.5002 20.7998C68.8002 21.8998 69.2002 23.3998 69.2002 25.2998V32.0998C69.2002 33.7998 69.9002 34.2998 70.5002 34.2998C70.9002 34.2998 71.5002 34.0998 71.8002 33.8998L72.2002 34.8998L69.0002 36.8998ZM66.3002 27.6998C65.5002 28.0998 63.8002 28.8998 63.0002 29.1998C61.6002 29.8998 60.8002 30.5998 60.8002 31.8998C60.8002 33.7998 62.3002 34.6998 63.4002 34.6998C64.4002 34.6998 65.6002 33.9998 66.3002 33.3998V27.6998Z" fill="#231F20"/>
<path d="M82.1998 24.7C81.4998 22.5 80.1998 21.1 78.3998 21.1C76.9998 21.1 75.9998 22.2 75.9998 23.6C75.9998 25.2 77.4998 26.1 79.0998 26.8C81.8998 27.9 83.6998 29.3 83.6998 31.8C83.6998 35.1 80.5998 36.9 77.5998 36.9C75.6998 36.9 73.9998 36.2 73.3998 35.6C73.0998 35.1 72.7998 32.6 72.7998 31.3L73.7998 31.1C74.4998 33.5 76.0998 35.7 78.2998 35.7C79.6998 35.7 80.8998 34.7 80.8998 33.1C80.8998 31.5 79.7998 30.6 77.9998 29.8C75.7998 28.8 73.3998 27.6 73.3998 24.7C73.3998 22.1 75.5998 20 78.9998 20C80.4998 20 81.4998 20.3 82.2998 20.6C82.5998 21.4 82.9998 23.6 83.0998 24.5L82.1998 24.7Z" fill="#231F20"/>
<path d="M93.9 24.7C93.2 22.5 91.9 21.1 90.1 21.1C88.7 21.1 87.7 22.2 87.7 23.6C87.7 25.2 89.2 26.1 90.8 26.8C93.6 27.9 95.4 29.3 95.4 31.8C95.4 35.1 92.3 36.9 89.3 36.9C87.4 36.9 85.7 36.2 85.1 35.6C84.8 35.1 84.5 32.6 84.5 31.3L85.5 31.1C86.2 33.5 87.8 35.7 90 35.7C91.4 35.7 92.6 34.7 92.6 33.1C92.6 31.5 91.5 30.6 89.7 29.8C87.5 28.8 85.1 27.6 85.1 24.7C85.1 22.1 87.3 20 90.7 20C92.2 20 93.2 20.3 94 20.6C94.3 21.4 94.7 23.6 94.8 24.5L93.9 24.7Z" fill="#231F20"/>
</svg>
