<svg width="314" height="72" viewBox="0 0 314 72" fill="none" xmlns="http://www.w3.org/2000/svg">
<g clip-path="url(#clip0_559_2973)">
<rect width="314" height="72" fill="white"/>
<mask id="mask0_559_2973" style="mask-type:luminance" maskUnits="userSpaceOnUse" x="7" y="-1" width="314" height="72">
<path d="M321 -1H7V71H321V-1Z" fill="white"/>
</mask>
<g mask="url(#mask0_559_2973)">
<path d="M301 -1H7V71H301V-1Z" fill="white"/>
<mask id="mask1_559_2973" style="mask-type:luminance" maskUnits="userSpaceOnUse" x="17" y="11" width="277" height="48">
<path d="M294 11H17V58.0757H294V11Z" fill="white"/>
</mask>
<g mask="url(#mask1_559_2973)">
<mask id="mask2_559_2973" style="mask-type:luminance" maskUnits="userSpaceOnUse" x="18" y="11" width="272" height="47">
<path d="M289.056 11.4707H18.1768V57.4872H289.056V11.4707Z" fill="white"/>
</mask>
<g mask="url(#mask2_559_2973)">
<path d="M69.1511 26.2996H66.4434V39.3631H69.1511V26.2996Z" fill="#010101"/>
<path d="M81.3939 29.8304C80.8054 29.8304 80.2167 29.9481 79.7459 30.1834C79.2749 30.4188 78.8041 30.8896 78.4509 31.3603C78.2154 30.8896 77.7446 30.4188 77.2736 30.1834C76.8028 29.9481 76.2142 29.7127 75.6255 29.8304C75.1547 29.8304 74.566 29.9481 74.2129 30.1834C73.742 30.4188 73.3889 30.7719 73.0357 31.125V30.0658H70.5635V39.3632H73.1534V34.5379C73.1534 32.7726 73.742 31.8311 74.9192 31.8311C75.861 31.8311 76.3319 32.5372 76.3319 33.7141V39.3632H78.9218V34.5379C78.9218 32.7726 79.5104 31.8311 80.6876 31.8311C81.6294 31.8311 82.1003 32.5372 82.1003 33.8318V39.2455H84.6901V33.4787C84.6901 31.125 83.3952 29.8304 81.3939 29.8304Z" fill="#010101"/>
<path d="M90.4583 31.831C91.6355 31.831 92.4595 33.0079 92.4595 34.7733C92.4595 36.5386 91.6355 37.7155 90.4583 37.7155C89.2811 37.7155 88.457 36.6563 88.457 34.7733C88.457 32.8902 89.2811 31.831 90.4583 31.831ZM91.2823 29.8303C90.6937 29.8303 90.2228 29.948 89.7519 30.1834C89.2811 30.4188 88.9278 30.7718 88.5747 31.2426V29.948H86.1025V42.7761H88.6925V38.3039C88.9278 38.7747 89.3988 39.1278 89.8696 39.3632C90.3406 39.5985 90.8114 39.7162 91.4001 39.7162C93.7545 39.7162 95.2848 37.7155 95.2848 34.7733C95.1672 31.831 93.6367 29.8303 91.2823 29.8303Z" fill="#010101"/>
<path d="M100.701 31.5957C101.76 31.5957 102.584 32.3018 102.701 33.5964H98.5816C98.817 32.1841 99.6411 31.5957 100.701 31.5957ZM100.701 37.8332C99.6411 37.8332 98.6993 37.1271 98.5816 35.244H105.292C105.292 34.4202 105.174 33.5964 105.056 32.8902C104.821 31.9487 104.232 31.1249 103.409 30.6541C102.584 30.0657 101.642 29.8303 100.701 29.8303C97.7575 29.8303 96.1094 31.9487 96.1094 34.6556C96.1094 37.5978 97.7575 39.7162 100.701 39.7162C103.173 39.7162 104.821 38.3039 105.174 36.5386H102.584C102.466 36.8917 102.231 37.2447 101.878 37.4801C101.525 37.8332 101.054 37.9509 100.701 37.8332Z" fill="#010101"/>
<path d="M111.295 29.948C110.825 29.948 110.236 30.0657 109.765 30.3011C109.294 30.5364 108.941 30.8895 108.705 31.3603V30.0657H106.351V39.3631H108.941V35.0086C108.941 33.1256 109.765 32.1841 111.413 32.1841C111.648 32.1841 112.002 32.1841 112.237 32.3018V30.0657C111.884 29.948 111.531 29.948 111.295 29.948Z" fill="#010101"/>
<path d="M115.887 30.0656H113.297V39.3631H115.887V30.0656ZM115.887 26.2996H113.297V28.5357H115.887V26.2996Z" fill="#010101"/>
<path d="M123.068 35.4795C123.068 35.8325 123.068 36.0679 122.95 36.421C122.832 36.7741 122.714 37.0094 122.479 37.2448C122.126 37.5979 121.538 37.8333 121.066 37.7156C120.124 37.7156 119.654 37.2448 119.654 36.5387C119.654 35.8325 120.124 35.4795 121.184 35.2441C121.773 35.1264 122.479 35.1264 123.068 35.0087V35.4795ZM121.538 29.8304C118.83 29.8304 117.534 31.2427 117.534 33.008H120.007C120.007 32.7726 120.007 32.6549 120.124 32.4196C120.242 32.1842 120.36 32.0665 120.477 31.9488C120.595 31.8311 120.83 31.7134 120.948 31.5957C121.184 31.478 121.302 31.478 121.538 31.478C122.479 31.478 123.068 31.9488 123.068 33.1257V33.4788C122.479 33.4788 121.42 33.5964 120.713 33.7141C118.006 34.1849 117.063 35.1264 117.063 36.6564C117.063 38.1863 118.241 39.4809 120.242 39.4809C120.83 39.4809 121.42 39.3632 121.891 39.1278C122.361 38.8925 122.832 38.5394 123.185 37.9509C123.185 38.4217 123.185 38.7748 123.303 39.2455H125.658C125.422 38.4217 125.422 37.5979 125.422 36.6564V33.2434C125.54 31.0073 124.127 29.7127 121.538 29.8304Z" fill="#010101"/>
<path d="M129.542 26.2996H126.952V39.3631H129.542V26.2996Z" fill="#010101"/>
<path d="M141.197 26.0642C137.548 26.0642 135.193 28.6534 135.193 32.8902C135.193 37.127 137.43 39.7162 141.08 39.7162C144.258 39.7162 146.377 37.9508 146.613 34.8909H143.787C143.787 35.244 143.67 35.597 143.552 35.8324C143.434 36.1855 143.199 36.4209 142.963 36.6562C142.727 36.8916 142.374 37.0093 142.021 37.127C141.668 37.2447 141.315 37.2447 140.962 37.2447C138.96 37.2447 137.783 35.597 137.783 32.7725C137.783 29.948 139.078 28.3003 140.962 28.3003C141.315 28.3003 141.668 28.3003 141.904 28.418C142.257 28.5357 142.492 28.6534 142.727 28.8888C142.963 29.1241 143.199 29.3595 143.317 29.7126C143.434 30.0656 143.552 30.301 143.552 30.6541H146.259C146.495 28.0649 144.494 26.0642 141.197 26.0642Z" fill="#010101"/>
<path d="M152.616 31.7134C153.911 31.7134 154.735 32.8902 154.735 34.6556C154.735 36.4209 153.911 37.5978 152.616 37.5978C151.321 37.5978 150.497 36.4209 150.497 34.6556C150.615 32.8902 151.438 31.7134 152.616 31.7134ZM152.616 29.8303C149.673 29.8303 147.789 31.831 147.789 34.7733C147.789 37.7155 149.673 39.7162 152.616 39.7162C155.558 39.7162 157.442 37.7155 157.442 34.7733C157.442 31.831 155.558 29.8303 152.616 29.8303Z" fill="#010101"/>
<path d="M161.327 26.2996H158.737V39.3631H161.327V26.2996Z" fill="#010101"/>
<path d="M165.566 26.2996H162.976V39.3631H165.566V26.2996Z" fill="#010101"/>
<path d="M171.45 31.5957C172.51 31.5957 173.334 32.3018 173.452 33.5964H169.332C169.685 32.1841 170.391 31.5957 171.45 31.5957ZM171.45 37.8332C170.391 37.8332 169.449 37.1271 169.332 35.244H176.042C176.042 34.4202 175.924 33.5964 175.807 32.8902C175.571 31.9487 174.982 31.1249 174.158 30.6541C173.334 30.0657 172.393 29.8303 171.45 29.8303C168.507 29.8303 166.859 31.9487 166.859 34.6556C166.859 37.5978 168.507 39.7162 171.45 39.7162C173.923 39.7162 175.571 38.3039 175.924 36.5386H173.334C173.216 36.8917 172.981 37.2447 172.628 37.4801C172.275 37.8332 171.921 37.9509 171.45 37.8332Z" fill="#010101"/>
<path d="M181.692 31.9487C182.87 31.9487 183.694 33.0079 183.694 34.5379C183.694 36.0679 182.87 37.1271 181.692 37.1271C180.515 37.1271 179.809 36.0679 179.809 34.5379C179.809 32.8902 180.515 31.9487 181.692 31.9487ZM180.986 29.8303C178.632 29.8303 177.102 31.7134 177.102 34.5379C177.102 37.4801 178.632 39.2455 180.869 39.2455C181.339 39.2455 181.928 39.1278 182.399 38.8924C182.87 38.657 183.223 38.3039 183.459 37.8332V38.657C183.459 40.4224 182.753 41.0108 181.575 41.0108C180.633 41.0108 180.045 40.54 179.927 39.8339H177.337C177.455 41.7169 178.867 42.7761 181.457 42.7761C184.165 42.7761 185.93 41.4816 185.93 38.657V29.948H183.459V31.2426C183.223 30.7718 182.87 30.4188 182.399 30.0657C182.045 29.948 181.575 29.8303 180.986 29.8303Z" fill="#010101"/>
<path d="M191.816 31.5957C192.876 31.5957 193.7 32.3018 193.818 33.5964H189.698C189.933 32.1841 190.757 31.5957 191.816 31.5957ZM191.816 37.8332C190.757 37.8332 189.816 37.1271 189.698 35.244H196.408C196.408 34.4202 196.29 33.5964 196.172 32.8902C195.936 31.9487 195.348 31.1249 194.524 30.6541C193.7 30.0657 192.758 29.8303 191.816 29.8303C188.873 29.8303 187.226 31.9487 187.226 34.6556C187.226 37.5978 188.991 39.7162 191.816 39.7162C194.289 39.7162 195.936 38.3039 196.29 36.5386H193.7C193.583 36.8917 193.347 37.2447 192.994 37.4801C192.64 37.8332 192.287 37.9509 191.816 37.8332Z" fill="#010101"/>
<path d="M198.88 44.1885H196.29V57.252H198.88V44.1885Z" fill="#010101"/>
<path d="M148.731 43.9528C145.905 43.9528 143.904 45.4828 143.904 47.8366C143.904 50.6611 146.141 51.2496 148.613 51.9557C150.496 52.4265 151.32 52.6619 151.32 53.8387C151.32 54.8979 150.496 55.4864 149.084 55.4864C147.435 55.4864 146.612 54.6626 146.612 53.1326H143.786C143.786 56.0748 145.788 57.7225 149.084 57.7225C152.145 57.7225 154.146 56.0748 154.146 53.6034C154.146 50.7788 152.027 50.0727 149.555 49.4842C147.553 49.0135 146.729 48.6604 146.729 47.6012C146.729 46.7774 147.553 46.1889 148.731 46.1889C150.261 46.1889 150.967 47.0128 150.967 48.3074H153.675C153.793 45.3651 152.027 43.8352 148.731 43.9528Z" fill="#010101"/>
<path d="M159.796 47.6013C156.972 47.6013 155.088 49.602 155.088 52.5443C155.088 55.6042 156.972 57.4872 159.796 57.4872C160.386 57.4872 160.857 57.4872 161.445 57.2518C161.916 57.0165 162.387 56.7811 162.857 56.428C163.21 56.0749 163.564 55.6042 163.8 55.1334C164.035 54.6627 164.153 54.0742 164.153 53.6035H161.445C161.327 54.7804 160.739 55.6042 159.679 55.6042C158.384 55.6042 157.678 54.4273 157.678 52.662C157.678 50.7789 158.384 49.7197 159.679 49.7197C159.914 49.7197 160.15 49.7197 160.386 49.8374C160.621 49.9551 160.739 50.0728 160.974 50.1905C161.092 50.3082 161.21 50.5435 161.327 50.7789C161.445 51.0143 161.445 51.2497 161.445 51.4851H164.153C164.035 49.249 162.387 47.6013 159.796 47.6013Z" fill="#010101"/>
<path d="M167.92 49.0137V44.1885H165.33V57.252H167.92V52.309C167.92 50.5437 168.744 49.8376 169.803 49.8376C170.863 49.8376 171.452 50.5437 171.452 51.8383V57.252H174.042V51.4852C174.042 49.0137 172.746 47.7192 170.628 47.7192C170.156 47.7192 169.686 47.8368 169.215 48.0722C168.626 48.3076 168.273 48.6607 167.92 49.0137Z" fill="#010101"/>
<path d="M179.927 49.602C181.222 49.602 182.046 50.7789 182.046 52.5443C182.046 54.3096 181.222 55.4865 179.927 55.4865C178.632 55.4865 177.808 54.3096 177.808 52.5443C177.808 50.7789 178.632 49.602 179.927 49.602ZM179.927 47.719C176.984 47.719 175.101 49.7197 175.101 52.6619C175.101 55.7219 176.984 57.6049 179.927 57.6049C182.87 57.6049 184.754 55.6042 184.754 52.6619C184.636 49.602 182.752 47.719 179.927 47.719Z" fill="#010101"/>
<path d="M190.287 49.602C191.582 49.602 192.406 50.7789 192.406 52.5443C192.406 54.3096 191.582 55.4865 190.287 55.4865C188.992 55.4865 188.168 54.3096 188.168 52.5443C188.168 50.7789 189.11 49.602 190.287 49.602ZM190.287 47.719C187.343 47.719 185.578 49.7197 185.578 52.6619C185.578 55.7219 187.461 57.6049 190.287 57.6049C193.23 57.6049 195.114 55.6042 195.114 52.6619C195.114 49.602 193.23 47.719 190.287 47.719Z" fill="#010101"/>
<path d="M49.726 43.7175C49.726 48.3074 45.4879 49.7197 41.7208 49.7197H31.7144V37.1269H41.7208C46.0766 37.1269 49.726 38.8923 49.726 43.7175ZM47.136 24.4165C47.136 28.771 43.9576 30.0656 40.1904 30.0656H31.7144V18.6497H40.0727C43.7221 18.6497 47.136 20.062 47.136 24.4165ZM55.4943 23.9457C55.4943 21.945 55.0235 20.062 54.0817 18.2967C53.1399 16.5313 51.8449 15.1191 50.1968 14.0599C47.136 12.0591 43.2513 11.5884 39.6019 11.5884H26.417V57.3695H41.3677C45.7234 57.3695 49.9614 57.0164 53.493 54.3096C56.7893 51.8381 58.0842 48.072 58.0842 44.0706C58.0842 39.8338 54.788 35.2439 50.3146 33.714C54.1994 31.8309 55.4943 27.7118 55.4943 23.9457Z" fill="#C7E7E5"/>
<path d="M26.4173 11.4707H18.1768V57.2518H26.4173V11.4707Z" fill="#40BDA7"/>
<path d="M81.041 57.4872C81.6295 57.4872 82.1005 57.3695 82.5713 57.1341C83.0423 56.8987 83.5131 56.5457 83.7486 56.0749V57.2518H86.1031V47.9543H83.5131V53.015C83.5131 54.6626 82.6891 55.6041 81.6295 55.6041C80.5701 55.6041 79.9814 54.898 79.9814 53.6034V48.072H77.3916V53.8388C77.627 56.1926 79.0397 57.4872 81.041 57.4872Z" fill="#010101"/>
<path d="M91.5177 47.6013C89.1633 47.6013 87.6329 48.7782 87.6329 50.4259C87.6329 52.5443 89.2811 52.8973 90.9292 53.3681C92.3418 53.7212 93.0481 53.9565 93.0481 54.7804C93.0481 55.3688 92.5773 55.7219 91.6355 55.7219C90.576 55.7219 89.9874 55.2511 89.9874 54.3096H87.3975C87.3975 56.5457 89.0456 57.6049 91.6355 57.6049C94.2253 57.6049 95.7558 56.428 95.7558 54.6627C95.7558 52.4266 93.8722 51.9558 92.224 51.4851C90.8114 51.132 90.2228 51.0143 90.2228 50.3082C90.2228 49.7197 90.6937 49.4843 91.5177 49.4843C92.3418 49.4843 92.9305 49.8374 92.9305 50.8966H95.4026C95.4026 48.7782 93.9899 47.6013 91.5177 47.6013Z" fill="#010101"/>
<path d="M99.6407 47.9545H97.0508V57.252H99.6407V47.9545ZM99.6407 44.1885H97.0508V46.4246H99.6407V44.1885Z" fill="#010101"/>
<path d="M106.233 47.719C105.645 47.719 105.174 47.8367 104.702 48.0721C104.231 48.3074 103.761 48.6605 103.525 49.1313V47.9544H101.171V57.2518H103.761V52.3089C103.761 50.6612 104.584 49.8374 105.645 49.8374C106.704 49.8374 107.292 50.5435 107.292 51.8381V57.2518H109.882V51.4851C109.765 49.0136 108.47 47.719 106.233 47.719Z" fill="#010101"/>
<path d="M115.416 49.4843C116.475 49.4843 117.299 50.1905 117.416 51.4851H113.296C113.532 50.0728 114.355 49.4843 115.416 49.4843ZM115.416 55.7219C114.355 55.7219 113.414 55.0157 113.296 53.1327H120.006C120.006 52.3089 119.889 51.4851 119.653 50.7789C119.418 49.8374 118.829 49.0136 118.006 48.4251C117.181 47.8367 116.239 47.6013 115.298 47.6013C112.355 47.6013 110.706 49.7197 110.706 52.4266C110.706 55.3688 112.355 57.4872 115.298 57.4872C117.769 57.4872 119.418 56.0749 119.771 54.4273H117.181C117.063 54.7804 116.828 55.1334 116.475 55.3688C116.239 55.7219 115.886 55.8396 115.416 55.7219Z" fill="#010101"/>
<path d="M124.833 47.6013C122.479 47.6013 120.948 48.7782 120.948 50.4259C120.948 52.5443 122.597 52.8973 124.245 53.3681C125.658 53.7212 126.364 53.9565 126.364 54.7804C126.364 55.3688 125.893 55.7219 124.952 55.7219C123.891 55.7219 123.303 55.2511 123.303 54.3096H120.713C120.713 56.5457 122.361 57.6049 124.952 57.6049C127.541 57.6049 129.072 56.428 129.072 54.6627C129.072 52.4266 127.188 51.9558 125.54 51.4851C124.127 51.132 123.538 51.0143 123.538 50.3082C123.538 49.7197 124.009 49.4843 124.833 49.4843C125.658 49.4843 126.246 49.8374 126.246 50.8966H128.836C128.836 48.7782 127.305 47.6013 124.833 47.6013Z" fill="#010101"/>
<path d="M133.898 47.6013C131.544 47.6013 130.013 48.7782 130.013 50.4259C130.013 52.5443 131.662 52.8973 133.309 53.3681C134.723 53.7212 135.429 53.9565 135.429 54.7804C135.429 55.3688 134.958 55.7219 134.133 55.7219C133.074 55.7219 132.486 55.2511 132.486 54.3096H129.896C129.896 56.5457 131.544 57.6049 134.133 57.6049C136.723 57.6049 138.254 56.428 138.254 54.6627C138.254 52.4266 136.37 51.9558 134.723 51.4851C133.309 51.132 132.721 51.0143 132.721 50.3082C132.721 49.7197 133.192 49.4843 134.016 49.4843C134.84 49.4843 135.429 49.8374 135.429 50.8966H137.901C137.901 48.7782 136.37 47.6013 133.898 47.6013Z" fill="#010101"/>
<path d="M74.0953 53.3679C74.0953 54.6624 72.9181 55.1332 71.7409 55.1332H69.0333V51.4848H71.7409C73.1535 51.4848 74.0953 51.9556 74.0953 53.3679ZM73.6245 47.9541C73.6245 49.131 72.6827 49.6018 71.6232 49.6018H69.1511V46.3065H71.5055C72.565 46.3065 73.5067 46.6596 73.6245 47.9541ZM75.9789 47.7188C75.9789 47.1303 75.8611 46.6596 75.6258 46.0711C75.3903 45.6004 75.0371 45.1296 74.5663 44.8942C73.6245 44.4235 72.565 44.0704 71.5055 44.1881H66.4434V57.2516H71.8587C73.0358 57.3693 74.3308 57.0162 75.3903 56.3101C75.8611 55.957 76.2144 55.4863 76.4498 55.0155C76.6852 54.5447 76.8029 53.9563 76.8029 53.3679C76.8029 52.6617 76.5676 52.0733 76.0966 51.6025C75.7434 51.1318 75.1548 50.661 74.5663 50.4256C75.0371 50.1902 75.508 49.7195 75.7434 49.2487C75.8612 48.8957 75.9789 48.3072 75.9789 47.7188Z" fill="#010101"/>
<path d="M207.475 26.1819V57.2518" stroke="#010101" stroke-width="0.6986" stroke-miterlimit="10"/>
<path d="M217.244 27.4764V32.184H223.837V33.2432H217.244V38.3039H224.425V39.3631H216.067V26.4172H224.19V27.4764H217.244Z" fill="#010101"/>
<path d="M234.314 39.3631H232.902L230.077 35.3617L227.251 39.3631H225.839L229.37 34.5379L226.074 30.0657H227.487L229.959 33.714L232.549 30.0657H233.961L230.665 34.5379L234.314 39.3631Z" fill="#010101"/>
<path d="M241.968 36.6563H243.145C242.909 38.3039 241.614 39.5985 239.26 39.5985C236.552 39.5985 235.021 37.5978 235.021 34.5379C235.021 31.831 236.552 29.8303 239.142 29.8303C240.084 29.8303 241.026 30.0657 241.732 30.7718C242.439 31.3603 242.909 32.1841 243.027 33.1256C243.145 33.7141 243.145 34.3025 243.145 34.891H236.082C236.082 37.3624 237.494 38.5393 239.142 38.5393C239.731 38.5393 240.437 38.4216 240.908 38.0686C241.379 37.8332 241.732 37.2447 241.968 36.6563ZM236.082 34.0671H242.086C241.968 31.9487 240.79 30.8895 239.142 30.8895C237.376 30.7718 236.199 32.0664 236.082 34.0671Z" fill="#010101"/>
<path d="M252.562 33.2433H251.384C251.384 32.5372 251.031 31.9487 250.561 31.478C250.09 31.0072 249.384 30.7718 248.795 30.7718C246.911 30.7718 245.852 32.3018 245.852 34.6556C245.852 37.1271 247.029 38.5393 248.795 38.5393C249.501 38.5393 250.09 38.3039 250.561 37.7155C251.031 37.2447 251.384 36.6563 251.384 35.9502H252.562C252.562 36.8917 252.092 37.8332 251.384 38.5393C250.678 39.2455 249.737 39.5985 248.795 39.4808C246.205 39.4808 244.557 37.5978 244.557 34.6556C244.557 31.7134 246.205 29.8303 248.795 29.8303C249.737 29.8303 250.678 30.0657 251.384 30.7718C252.092 31.478 252.562 32.3018 252.562 33.2433Z" fill="#010101"/>
<path d="M253.975 35.7148V30.0657H255.152V35.7148C255.152 37.9509 256.094 38.657 257.506 38.657C259.037 38.657 260.214 37.5978 260.214 35.7148V30.1834H261.392V39.4808H260.332V38.0685C259.979 38.5393 259.626 38.8924 259.037 39.1277C258.566 39.3631 257.977 39.4808 257.389 39.4808C255.152 39.5985 253.975 38.3039 253.975 35.7148Z" fill="#010101"/>
<path d="M267.513 38.4216V39.3631C267.278 39.3631 266.924 39.4808 266.688 39.4808C265.041 39.4808 264.452 38.7747 264.452 37.0093V31.1249H262.804V30.1833H264.452V28.0649H265.629V30.1833H267.513V31.0072H265.629V36.8916C265.629 37.9508 265.982 38.4216 266.924 38.4216C267.042 38.4216 267.278 38.4216 267.513 38.4216Z" fill="#010101"/>
<path d="M269.514 27.9472V26.2996H270.692V27.9472H269.514ZM269.514 39.3631V30.0656H270.692V39.3631H269.514Z" fill="#010101"/>
<path d="M275.635 39.3631L272.104 30.0657H273.281L274.694 34.0671C275.164 35.4794 275.635 36.774 276.224 38.1862C276.695 36.774 277.166 35.4794 277.754 34.0671L279.167 30.0657H280.345L276.813 39.3631H275.635Z" fill="#010101"/>
<path d="M287.878 36.6563H289.056C288.82 38.3039 287.525 39.5985 285.17 39.5985C282.464 39.5985 280.933 37.5978 280.933 34.5379C280.933 31.831 282.464 29.8303 285.053 29.8303C285.995 29.8303 286.937 30.0657 287.643 30.7718C288.349 31.3603 288.82 32.1841 288.938 33.1256C289.056 33.7141 289.056 34.3025 289.056 34.891H281.992C281.992 37.3624 283.405 38.5393 285.053 38.5393C285.642 38.5393 286.348 38.4216 286.819 38.0686C287.29 37.8332 287.643 37.2447 287.878 36.6563ZM281.992 34.0671H287.996C287.878 31.9487 286.701 30.8895 285.053 30.8895C283.287 30.7718 282.11 32.0664 281.992 34.0671Z" fill="#010101"/>
<path d="M217.244 45.3654V50.0729H223.837V51.1321H217.244V56.1928H224.425V57.252H216.067V44.3062H224.19V45.3654H217.244Z" fill="#010101"/>
<path d="M232.314 57.252V55.8397C232.077 56.3105 231.607 56.7812 231.136 57.0166C230.665 57.252 230.077 57.4874 229.488 57.3697C227.133 57.3697 225.604 55.4866 225.604 52.5444C225.604 49.6022 227.133 47.7192 229.488 47.7192C230.077 47.7192 230.665 47.8368 231.136 48.0722C231.607 48.3076 232.077 48.7784 232.314 49.2491V44.1885H233.491V57.252H232.314ZM226.545 52.5444C226.545 54.8982 227.722 56.4282 229.488 56.4282C231.254 56.4282 232.314 54.8982 232.314 52.5444C232.314 50.1906 231.136 48.6607 229.488 48.6607C227.84 48.6607 226.545 50.1906 226.545 52.5444Z" fill="#010101"/>
<path d="M235.257 53.6034V47.9543H236.435V53.6034C236.435 55.8395 237.376 56.5457 238.789 56.5457C240.319 56.5457 241.496 55.4865 241.496 53.6034V48.072H242.674V57.3695H241.496V56.0749C241.143 56.5457 240.79 56.8987 240.202 57.1341C239.731 57.3695 239.142 57.4872 238.553 57.4872C236.435 57.4872 235.257 56.1926 235.257 53.6034Z" fill="#010101"/>
<path d="M252.21 51.132H251.032C251.032 50.4258 250.679 49.8374 250.208 49.3666C249.737 48.8959 249.031 48.6605 248.443 48.6605C246.559 48.6605 245.5 50.1905 245.5 52.5443C245.5 55.0157 246.559 56.428 248.443 56.428C249.149 56.428 249.737 56.1926 250.208 55.6042C250.679 55.1334 251.032 54.4273 251.032 53.8388H252.21C252.21 54.7803 251.739 55.7219 251.032 56.428C250.326 57.1341 249.384 57.4872 248.443 57.3695C245.853 57.3695 244.204 55.4865 244.204 52.5443C244.204 49.4843 245.853 47.719 248.443 47.719C249.384 47.719 250.326 48.0721 251.032 48.6605C251.739 49.249 252.092 50.1905 252.21 51.132Z" fill="#010101"/>
<path d="M261.038 51.2497V54.8981C261.038 55.7219 261.156 56.428 261.274 57.1341H260.214C260.096 56.6634 260.096 56.1926 260.096 55.7219C259.507 56.7811 258.448 57.3695 256.8 57.3695C254.917 57.3695 253.621 56.1926 253.621 54.6627C253.621 53.1327 254.446 52.1912 257.153 51.8381C257.977 51.7204 259.154 51.6028 259.978 51.4851V51.0143C259.978 49.249 259.037 48.5428 257.623 48.5428C256.094 48.5428 255.27 49.3667 255.152 50.6612H253.974C254.092 48.8959 255.387 47.6013 257.623 47.6013C259.743 47.719 261.038 48.7782 261.038 51.2497ZM259.978 52.5443C259.154 52.5443 258.095 52.7796 257.27 52.8973C255.387 53.1327 254.799 53.7212 254.799 54.7804C254.799 55.8396 255.623 56.5457 256.917 56.5457C257.388 56.5457 257.742 56.428 258.095 56.3103C258.448 56.1926 258.801 55.9573 259.154 55.6042C259.39 55.2511 259.625 54.8981 259.743 54.545C259.86 54.1919 259.86 53.7212 259.86 53.2504V52.5443H259.978Z" fill="#010101"/>
<path d="M266.924 56.1926V57.1341C266.689 57.2518 266.335 57.2518 266.1 57.2518C264.57 57.2518 263.863 56.5457 263.863 54.7803V48.8959H262.215V47.9543H263.863V45.8359H265.04V47.9543H266.924V48.8959H265.04V54.7803C265.04 55.8395 265.393 56.3103 266.335 56.3103C266.571 56.3103 266.689 56.3103 266.924 56.1926Z" fill="#010101"/>
<path d="M268.808 45.8361V44.3062H269.985V45.8361H268.808ZM268.808 57.252V47.9545H269.985V57.252H268.808Z" fill="#010101"/>
<path d="M279.991 52.5443C279.991 55.6042 278.342 57.3695 275.752 57.3695C273.163 57.3695 271.515 55.4865 271.515 52.5443C271.515 49.4843 273.163 47.719 275.752 47.719C278.342 47.719 279.991 49.602 279.991 52.5443ZM272.692 52.5443C272.692 54.898 273.869 56.428 275.752 56.428C277.636 56.428 278.813 54.898 278.813 52.5443C278.813 50.0728 277.636 48.6605 275.752 48.6605C273.869 48.6605 272.692 50.1905 272.692 52.5443Z" fill="#010101"/>
<path d="M288.82 51.6028V57.2519H287.643V51.7205C287.643 49.4844 286.701 48.7782 285.288 48.7782C283.758 48.7782 282.58 49.8374 282.58 51.7205V57.2519H281.403V47.9544H282.58V49.249C282.934 48.7782 283.287 48.4252 283.876 48.1898C284.346 47.9544 284.935 47.8367 285.523 47.8367C287.643 47.719 288.82 49.0136 288.82 51.6028Z" fill="#010101"/>
</g>
</g>
</g>
</g>
<defs>
<clipPath id="clip0_559_2973">
<rect width="314" height="72" fill="white"/>
</clipPath>
</defs>
</svg>
