<svg width="147" height="48" viewBox="0 0 147 48" fill="none" xmlns="http://www.w3.org/2000/svg">
<g clip-path="url(#clip0_407_99)">
<path d="M61.5215 19.8203V21.226H56.8658V19.8203H61.5215ZM57.4546 12.4795V21.226H55.6523V12.4795H57.4546ZM60.9148 16.0418V17.4114H56.8658V16.0418H60.9148ZM61.5155 12.4795V13.8912H56.8658V12.4795H61.5155Z" fill="black"/>
<path d="M65.2469 16.5173L66.9916 15.3895C67.2491 15.2191 67.4215 15.055 67.5088 14.8972C67.5959 14.7393 67.6396 14.5627 67.6396 14.3676C67.6396 14.1723 67.5669 13.9916 67.4215 13.8254C67.2761 13.6551 67.0726 13.57 66.8109 13.57C66.6239 13.57 66.4661 13.6135 66.3373 13.7008C66.2085 13.7839 66.1108 13.8961 66.0444 14.0373C65.9821 14.1786 65.9509 14.3364 65.9509 14.5109C65.9509 14.6978 66.0008 14.8889 66.1005 15.0841C66.2002 15.2752 66.3352 15.4788 66.5055 15.6948C66.6758 15.9067 66.8649 16.1371 67.0726 16.3864L71.1015 21.054L69.9799 21.9699L65.8264 17.3335C65.5314 16.968 65.2739 16.6336 65.0537 16.3303C64.8335 16.023 64.6611 15.7238 64.5364 15.4331C64.4118 15.1423 64.3496 14.8432 64.3496 14.5357C64.3496 14.0623 64.4513 13.6489 64.6549 13.2958C64.8584 12.9385 65.145 12.6623 65.5148 12.467C65.8845 12.2677 66.3186 12.168 66.8171 12.168C67.2865 12.168 67.6936 12.2656 68.0384 12.4609C68.3831 12.6519 68.649 12.9053 68.836 13.2211C69.027 13.5367 69.1226 13.8836 69.1226 14.2616C69.1226 14.5441 69.0707 14.8058 68.9668 15.0468C68.863 15.2835 68.7196 15.5037 68.5368 15.7072C68.3541 15.9067 68.1443 16.0915 67.9075 16.2618L65.9198 17.6762C65.7661 17.8175 65.6498 17.9567 65.5709 18.0937C65.4919 18.2308 65.4379 18.3617 65.4088 18.4863C65.3798 18.6067 65.3652 18.7231 65.3652 18.8353C65.3652 19.0762 65.4172 19.2922 65.521 19.4833C65.6249 19.6744 65.7702 19.8239 65.9572 19.9319C66.1441 20.0399 66.3622 20.0939 66.6114 20.0939C66.952 20.0939 67.2823 20.0191 67.6022 19.8696C67.9221 19.7201 68.2087 19.5061 68.4621 19.2278C68.7155 18.9453 68.917 18.6109 69.0665 18.2246C69.216 17.8382 69.2908 17.4125 69.2908 16.9472H70.8113C70.8113 17.4125 70.7655 17.8549 70.6741 18.2744C70.5827 18.6899 70.4352 19.0762 70.2317 19.4335C70.0282 19.7865 69.7582 20.1001 69.4217 20.3743C69.3967 20.3951 69.3615 20.4263 69.3157 20.4678C69.2742 20.5051 69.2389 20.5343 69.2099 20.555C68.811 20.8749 68.3956 21.1137 67.9636 21.2716C67.5316 21.4253 67.0497 21.5022 66.518 21.5022C65.9115 21.5022 65.386 21.3921 64.9415 21.1719C64.5011 20.9517 64.1605 20.6485 63.9196 20.2621C63.6828 19.8758 63.5645 19.4335 63.5645 18.9349C63.5645 18.5694 63.6351 18.2516 63.7763 17.9815C63.9217 17.7074 64.1211 17.4541 64.3745 17.2214C64.6279 16.9888 64.9187 16.754 65.2469 16.5173Z" fill="black"/>
<path d="M74.2337 12.4795V21.226H72.4375V12.4795H74.2337Z" fill="black"/>
<path d="M80.7465 18.3247H82.5428C82.5067 18.9135 82.3445 19.4361 82.0562 19.8926C81.7718 20.3492 81.3734 20.7056 80.8607 20.962C80.3521 21.2183 79.7394 21.3464 79.0225 21.3464C78.4618 21.3464 77.9592 21.2503 77.5147 21.0581C77.0702 20.8618 76.6897 20.5815 76.3733 20.217C76.0609 19.8526 75.8226 19.4121 75.6585 18.8954C75.4942 18.3788 75.4121 17.8001 75.4121 17.1593V16.5526C75.4121 15.9119 75.4962 15.3331 75.6644 14.8165C75.8366 14.2959 76.0809 13.8533 76.3973 13.4889C76.7177 13.1244 77.1002 12.8441 77.5447 12.6479C77.9893 12.4517 78.4858 12.3535 79.0345 12.3535C79.7634 12.3535 80.3781 12.4857 80.8787 12.75C81.3833 13.0143 81.7738 13.3787 82.0502 13.8433C82.3305 14.3079 82.4987 14.8365 82.5548 15.4292H80.7525C80.7326 15.0768 80.6625 14.7785 80.5424 14.5342C80.4222 14.2859 80.24 14.0996 79.9957 13.9755C79.7553 13.8473 79.435 13.7832 79.0345 13.7832C78.7341 13.7832 78.4719 13.8393 78.2475 13.9515C78.0233 14.0636 77.8351 14.2338 77.6829 14.4621C77.5307 14.6903 77.4165 14.9787 77.3404 15.3271C77.2683 15.6715 77.2323 16.076 77.2323 16.5406V17.1593C77.2323 17.6119 77.2664 18.0104 77.3344 18.3548C77.4026 18.6952 77.5066 18.9835 77.6469 19.2198C77.791 19.4521 77.9752 19.6283 78.1995 19.7484C78.4278 19.8646 78.7021 19.9227 79.0225 19.9227C79.3989 19.9227 79.7093 19.8626 79.9536 19.7424C80.1979 19.6223 80.3841 19.4441 80.5123 19.2078C80.6444 18.9715 80.7225 18.6772 80.7465 18.3247Z" fill="black"/>
<path d="M87.2099 12.4795V21.226H85.4138V12.4795H87.2099ZM89.9013 12.4795V13.8912H82.7646V12.4795H89.9013Z" fill="black"/>
<path d="M96.678 13.9763L94.2994 21.227H92.3828L95.6331 12.4805H96.8528L96.678 13.9763ZM98.6545 21.227L96.27 13.9763L96.0771 12.4805H97.3088L100.577 21.227H98.6545ZM98.5465 17.9711V19.3828H93.9265V17.9711H98.5465Z" fill="black"/>
<path d="M104.211 19.9959C104.423 19.9959 104.612 19.9559 104.775 19.8758C104.94 19.7917 105.068 19.6755 105.16 19.5273C105.256 19.3752 105.307 19.197 105.31 18.9927H106.939C106.934 19.4492 106.812 19.8557 106.572 20.2122C106.332 20.5646 106.01 20.843 105.605 21.0472C105.2 21.2474 104.748 21.3476 104.247 21.3476C103.742 21.3476 103.302 21.2635 102.926 21.0952C102.553 20.927 102.242 20.6948 101.995 20.3984C101.746 20.098 101.56 19.7496 101.436 19.3532C101.312 18.9526 101.249 18.5241 101.249 18.0676V17.8934C101.249 17.4328 101.312 17.0043 101.436 16.6078C101.56 16.2074 101.746 15.8589 101.995 15.5625C102.242 15.2622 102.553 15.0279 102.926 14.8597C103.298 14.6915 103.735 14.6074 104.235 14.6074C104.768 14.6074 105.234 14.7095 105.635 14.9138C106.04 15.118 106.356 15.4104 106.584 15.7908C106.816 16.1673 106.934 16.6138 106.939 17.1304H105.31C105.307 16.9142 105.26 16.718 105.172 16.5417C105.088 16.3655 104.964 16.2254 104.8 16.1212C104.64 16.0131 104.441 15.9591 104.205 15.9591C103.952 15.9591 103.747 16.0131 103.586 16.1212C103.426 16.2254 103.302 16.3695 103.214 16.5537C103.125 16.734 103.064 16.9402 103.028 17.1725C102.996 17.4008 102.98 17.6411 102.98 17.8934V18.0676C102.98 18.3199 102.996 18.5622 103.028 18.7945C103.059 19.0268 103.119 19.233 103.208 19.4133C103.3 19.5934 103.426 19.7356 103.586 19.8398C103.747 19.9438 103.955 19.9959 104.211 19.9959Z" fill="black"/>
<path d="M111.696 19.7616V16.8662C111.696 16.6579 111.662 16.4797 111.594 16.3315C111.526 16.1793 111.42 16.0611 111.276 15.9771C111.136 15.893 110.953 15.8509 110.73 15.8509C110.537 15.8509 110.37 15.8849 110.231 15.9531C110.09 16.0171 109.982 16.1112 109.906 16.2354C109.83 16.3555 109.792 16.4977 109.792 16.6619H108.062C108.062 16.3856 108.126 16.1232 108.254 15.875C108.383 15.6267 108.569 15.4083 108.813 15.2201C109.057 15.0279 109.348 14.8778 109.684 14.7696C110.024 14.6615 110.405 14.6074 110.826 14.6074C111.33 14.6074 111.779 14.6915 112.171 14.8597C112.564 15.0279 112.872 15.2802 113.096 15.6166C113.324 15.9531 113.438 16.3736 113.438 16.8782V19.6595C113.438 20.0159 113.46 20.3083 113.505 20.5365C113.549 20.7608 113.613 20.9571 113.697 21.1253V21.2274H111.948C111.864 21.0512 111.8 20.831 111.756 20.5666C111.716 20.2983 111.696 20.03 111.696 19.7616ZM111.924 17.2686L111.936 18.2478H110.97C110.742 18.2478 110.543 18.2738 110.375 18.3259C110.207 18.378 110.069 18.4521 109.961 18.5481C109.852 18.6403 109.772 18.7485 109.72 18.8726C109.672 18.9967 109.648 19.1329 109.648 19.2811C109.648 19.4292 109.682 19.5634 109.75 19.6835C109.818 19.7997 109.916 19.8918 110.045 19.9598C110.172 20.024 110.322 20.056 110.495 20.056C110.755 20.056 110.982 20.0039 111.174 19.8998C111.366 19.7957 111.514 19.6675 111.618 19.5153C111.726 19.3632 111.782 19.2189 111.786 19.0828L112.243 19.8157C112.179 19.9799 112.091 20.1501 111.978 20.3263C111.87 20.5025 111.732 20.6687 111.564 20.8249C111.396 20.9771 111.194 21.1033 110.958 21.2034C110.721 21.2995 110.441 21.3476 110.117 21.3476C109.704 21.3476 109.33 21.2654 108.993 21.1012C108.66 20.933 108.396 20.7027 108.2 20.4104C108.008 20.114 107.912 19.7776 107.912 19.4012C107.912 19.0608 107.976 18.7584 108.104 18.4941C108.232 18.2298 108.42 18.0075 108.669 17.8273C108.921 17.6431 109.236 17.5049 109.612 17.4128C109.988 17.3167 110.424 17.2686 110.922 17.2686H111.924Z" fill="black"/>
<path d="M118.857 19.8094V12H120.599V21.2271H119.031L118.857 19.8094ZM114.748 18.0553V17.9292C114.748 17.4326 114.804 16.9821 114.916 16.5776C115.028 16.1691 115.193 15.8187 115.409 15.5263C115.625 15.2339 115.891 15.0076 116.208 14.8474C116.524 14.6872 116.885 14.6072 117.289 14.6072C117.669 14.6072 118.002 14.6872 118.286 14.8474C118.574 15.0076 118.819 15.2359 119.019 15.5323C119.223 15.8247 119.388 16.171 119.512 16.5715C119.636 16.968 119.726 17.4026 119.782 17.8751V18.1515C119.726 18.6039 119.636 19.0245 119.512 19.413C119.388 19.8015 119.223 20.1418 119.019 20.4342C118.819 20.7225 118.574 20.9469 118.286 21.107C117.998 21.2672 117.661 21.3473 117.277 21.3473C116.873 21.3473 116.512 21.2652 116.196 21.101C115.884 20.9368 115.619 20.7065 115.403 20.4102C115.19 20.1138 115.028 19.7654 114.916 19.3649C114.804 18.9645 114.748 18.5279 114.748 18.0553ZM116.478 17.9292V18.0553C116.478 18.3237 116.498 18.5739 116.539 18.8062C116.582 19.0385 116.653 19.2447 116.749 19.425C116.849 19.6012 116.977 19.7394 117.133 19.8395C117.293 19.9356 117.487 19.9837 117.715 19.9837C118.012 19.9837 118.256 19.9176 118.448 19.7854C118.64 19.6492 118.787 19.4631 118.887 19.2267C118.991 18.9904 119.051 18.7181 119.067 18.4097V17.6228C119.055 17.3705 119.019 17.1442 118.959 16.944C118.903 16.7397 118.819 16.5655 118.707 16.4213C118.598 16.2771 118.463 16.165 118.298 16.085C118.138 16.0048 117.948 15.9648 117.727 15.9648C117.504 15.9648 117.311 16.0168 117.151 16.121C116.99 16.2211 116.861 16.3593 116.761 16.5355C116.665 16.7117 116.593 16.9199 116.545 17.1603C116.5 17.3965 116.478 17.6529 116.478 17.9292Z" fill="black"/>
<path d="M125.188 21.3476C124.684 21.3476 124.231 21.2674 123.831 21.1072C123.43 20.9431 123.089 20.7168 122.809 20.4284C122.533 20.1401 122.32 19.8057 122.172 19.4253C122.024 19.0407 121.95 18.6323 121.95 18.1997V17.9595C121.95 17.4669 122.02 17.0163 122.16 16.6078C122.301 16.1993 122.5 15.8449 122.761 15.5445C123.025 15.2442 123.346 15.0139 123.722 14.8537C124.099 14.6895 124.523 14.6074 124.996 14.6074C125.456 14.6074 125.865 14.6835 126.221 14.8357C126.578 14.9878 126.876 15.2042 127.116 15.4844C127.36 15.7648 127.545 16.1013 127.669 16.4937C127.793 16.8822 127.855 17.3147 127.855 17.7913V18.5121H122.689V17.3588H126.155V17.2266C126.155 16.9863 126.111 16.772 126.023 16.5838C125.938 16.3916 125.811 16.2393 125.638 16.1272C125.466 16.0151 125.246 15.9591 124.978 15.9591C124.75 15.9591 124.553 16.0091 124.389 16.1092C124.225 16.2093 124.09 16.3495 123.987 16.5297C123.886 16.7099 123.81 16.9222 123.758 17.1665C123.71 17.4068 123.686 17.6711 123.686 17.9595V18.1997C123.686 18.46 123.722 18.7004 123.794 18.9206C123.87 19.1408 123.976 19.3311 124.113 19.4913C124.252 19.6515 124.421 19.7757 124.618 19.8638C124.817 19.9519 125.044 19.9959 125.296 19.9959C125.608 19.9959 125.899 19.9358 126.167 19.8157C126.44 19.6916 126.674 19.5053 126.87 19.257L127.711 20.1701C127.575 20.3664 127.389 20.5546 127.152 20.7348C126.92 20.915 126.64 21.0633 126.311 21.1793C125.983 21.2915 125.608 21.3476 125.188 21.3476Z" fill="black"/>
<path d="M130.816 16.0731V21.2274H129.08V14.7275H130.708L130.816 16.0731ZM130.576 17.7492H130.095C130.095 17.2966 130.149 16.8801 130.257 16.4997C130.369 16.1152 130.531 15.7828 130.744 15.5024C130.96 15.2181 131.226 14.9979 131.543 14.8417C131.859 14.6855 132.226 14.6074 132.642 14.6074C132.93 14.6074 133.194 14.6515 133.435 14.7396C133.675 14.8237 133.882 14.9578 134.054 15.142C134.23 15.3223 134.366 15.5586 134.462 15.8509C134.558 16.1392 134.606 16.4857 134.606 16.8902V21.2274H132.876V17.0824C132.876 16.786 132.836 16.5578 132.756 16.3976C132.676 16.2374 132.562 16.1252 132.414 16.0611C132.27 15.9971 132.096 15.9651 131.892 15.9651C131.667 15.9651 131.471 16.0111 131.303 16.1032C131.138 16.1954 131.002 16.3235 130.894 16.4877C130.786 16.6479 130.706 16.8361 130.654 17.0523C130.602 17.2686 130.576 17.5009 130.576 17.7492ZM134.444 17.5509L133.825 17.629C133.825 17.2046 133.878 16.8101 133.982 16.4457C134.09 16.0812 134.248 15.7608 134.456 15.4844C134.669 15.2081 134.931 14.9939 135.243 14.8417C135.556 14.6855 135.916 14.6074 136.325 14.6074C136.637 14.6074 136.921 14.6535 137.178 14.7456C137.434 14.8337 137.652 14.9758 137.832 15.1721C138.017 15.3643 138.156 15.6166 138.253 15.929C138.353 16.2414 138.403 16.6238 138.403 17.0764V21.2274H136.667V17.0764C136.667 16.776 136.627 16.5477 136.547 16.3916C136.47 16.2314 136.359 16.1212 136.211 16.0611C136.066 15.9971 135.894 15.9651 135.694 15.9651C135.486 15.9651 135.303 16.0071 135.147 16.0912C134.991 16.1713 134.861 16.2834 134.757 16.4276C134.652 16.5717 134.574 16.74 134.522 16.9322C134.471 17.1205 134.444 17.3267 134.444 17.5509Z" fill="black"/>
<path d="M141.917 20.4946L143.642 14.7275H145.499L142.885 22.2066C142.829 22.3709 142.753 22.547 142.656 22.7352C142.565 22.9235 142.439 23.1017 142.278 23.2699C142.122 23.4421 141.923 23.5823 141.683 23.6904C141.447 23.7985 141.157 23.8526 140.813 23.8526C140.648 23.8526 140.514 23.8426 140.41 23.8226C140.306 23.8025 140.182 23.7745 140.038 23.7385V22.471C140.081 22.471 140.128 22.471 140.176 22.471C140.224 22.4749 140.27 22.477 140.314 22.477C140.543 22.477 140.729 22.4509 140.873 22.3989C141.017 22.3468 141.133 22.2667 141.221 22.1585C141.309 22.0544 141.379 21.9183 141.431 21.7501L141.917 20.4946ZM141.197 14.7275L142.608 19.4373L142.855 21.2695L141.677 21.3957L139.341 14.7275H141.197Z" fill="black"/>
<path d="M57.5697 27.1318V35.8784H55.7734V27.1318H57.5697Z" fill="black"/>
<path d="M61.4202 27.1318V35.8784H59.624V27.1318H61.4202Z" fill="black"/>
<path d="M67.084 27.1318V35.8784H65.2878V27.1318H67.084ZM69.7752 27.1318V28.5435H62.6387V27.1318H69.7752Z" fill="black"/>
<path d="M79.251 31.3081V34.7743C79.1149 34.9384 78.9046 35.1167 78.6202 35.3089C78.3359 35.4971 77.9695 35.6594 77.5209 35.7955C77.0724 35.9317 76.5297 35.9997 75.8929 35.9997C75.3283 35.9997 74.8136 35.9076 74.3491 35.7234C73.8845 35.5352 73.484 35.2609 73.1476 34.9004C72.8152 34.54 72.5589 34.0994 72.3787 33.5788C72.1985 33.0541 72.1084 32.4554 72.1084 31.7827V31.236C72.1084 30.5631 72.1945 29.9644 72.3667 29.4398C72.5429 28.9152 72.7932 28.4726 73.1176 28.1122C73.4419 27.7518 73.8284 27.4774 74.277 27.2892C74.7255 27.101 75.2241 27.0068 75.7728 27.0068C76.5337 27.0068 77.1584 27.131 77.6471 27.3794C78.1357 27.6236 78.5081 27.964 78.7644 28.4006C79.0247 28.8331 79.1849 29.3297 79.245 29.8903H77.4969C77.4529 29.5939 77.3687 29.3357 77.2446 29.1154C77.1205 28.8951 76.9422 28.7229 76.7099 28.5988C76.4816 28.4746 76.1853 28.4126 75.8209 28.4126C75.5205 28.4126 75.2521 28.4746 75.0159 28.5988C74.7836 28.7189 74.5873 28.8972 74.4271 29.1334C74.2669 29.3697 74.1448 29.6621 74.0607 30.0105C73.9766 30.359 73.9345 30.7634 73.9345 31.224V31.7827C73.9345 32.2392 73.9786 32.6437 74.0667 32.9961C74.1548 33.3446 74.285 33.6389 74.4572 33.8792C74.6334 34.1155 74.8497 34.2937 75.106 34.4138C75.3623 34.5339 75.6607 34.594 76.001 34.594C76.2854 34.594 76.5217 34.57 76.7099 34.5219C76.9021 34.4739 77.0563 34.4158 77.1725 34.3478C77.2927 34.2757 77.3847 34.2075 77.4488 34.1435V32.5936H75.8029V31.3081H79.251Z" fill="black"/>
<path d="M84.6876 34.3238V29.3799H86.4179V35.8797H84.7898L84.6876 34.3238ZM84.8799 32.9903L85.3905 32.9782C85.3905 33.4108 85.3404 33.8132 85.2403 34.1857C85.1402 34.5541 84.99 34.8745 84.7898 35.1468C84.5895 35.4152 84.3372 35.6254 84.0329 35.7776C83.7285 35.9258 83.37 35.9999 82.9576 35.9999C82.6412 35.9999 82.3488 35.9558 82.0805 35.8677C81.8162 35.7756 81.5879 35.6334 81.3957 35.4412C81.2075 35.245 81.0593 34.9947 80.9511 34.6903C80.847 34.3819 80.7949 34.0115 80.7949 33.5789V29.3799H82.5251V33.5909C82.5251 33.7832 82.5471 33.9454 82.5911 34.0775C82.6391 34.2097 82.7052 34.3178 82.7893 34.402C82.8735 34.4861 82.9715 34.5461 83.0837 34.5821C83.1998 34.6182 83.328 34.6362 83.4682 34.6362C83.8246 34.6362 84.1049 34.5641 84.3092 34.42C84.5174 34.2758 84.6636 34.0795 84.7477 33.8313C84.8358 33.5789 84.8799 33.2986 84.8799 32.9903Z" fill="black"/>
<path d="M89.8419 34.1977L91.1936 29.3799H92.2933L91.9384 31.2721L90.5867 35.8797H89.6679L89.8419 34.1977ZM89.157 29.3799L90.1247 34.1917L90.2147 35.8797H89.133L87.4873 29.3799H89.157ZM93.531 34.1136L94.4739 29.3799H96.1496L94.5039 35.8797H93.4282L93.531 34.1136ZM92.4433 29.3799L93.789 34.1616L93.975 35.8797H93.0502L91.6984 31.2782L91.3564 29.3799H92.4433Z" fill="black"/>
<path d="M100.775 34.414V31.5185C100.775 31.3102 100.741 31.132 100.673 30.9838C100.605 30.8317 100.499 30.7136 100.355 30.6294C100.214 30.5453 100.032 30.5033 99.8077 30.5033C99.6157 30.5033 99.4494 30.5373 99.3088 30.6054C99.1691 30.6695 99.0611 30.7636 98.9848 30.8877C98.9085 31.0079 98.8708 31.15 98.8708 31.3143H97.1402C97.1402 31.0379 97.2045 30.7756 97.3331 30.5273C97.4608 30.279 97.6468 30.0608 97.8911 29.8725C98.1354 29.6803 98.4259 29.5301 98.7628 29.4219C99.1031 29.3139 99.4837 29.2598 99.9037 29.2598C100.409 29.2598 100.857 29.3439 101.249 29.5121C101.642 29.6803 101.951 29.9326 102.175 30.269C102.403 30.6054 102.517 31.0259 102.517 31.5305V34.3119C102.517 34.6683 102.539 34.9606 102.583 35.189C102.627 35.4132 102.691 35.6095 102.775 35.7777V35.8797H101.027C100.943 35.7036 100.879 35.4833 100.835 35.219C100.795 34.9507 100.775 34.6823 100.775 34.414ZM101.003 31.921L101.015 32.9001H100.049C99.8197 32.9001 99.6217 32.9262 99.4537 32.9782C99.2848 33.0303 99.1468 33.1044 99.0388 33.2006C98.9308 33.2926 98.8502 33.4008 98.7988 33.5249C98.7508 33.6491 98.7268 33.7852 98.7268 33.9334C98.7268 34.0816 98.7602 34.2158 98.8288 34.3359C98.8965 34.4521 98.9951 34.5441 99.1228 34.6123C99.2514 34.6763 99.4014 34.7084 99.5737 34.7084C99.8342 34.7084 100.061 34.6563 100.253 34.5522C100.445 34.4481 100.593 34.3199 100.697 34.1677C100.805 34.0155 100.861 33.8714 100.865 33.7352L101.321 34.4681C101.258 34.6323 101.17 34.8025 101.057 34.9787C100.949 35.1549 100.811 35.3211 100.643 35.4773C100.475 35.6295 100.272 35.7556 100.037 35.8557C99.7999 35.9518 99.5197 35.9999 99.1948 35.9999C98.7825 35.9999 98.4079 35.9178 98.0719 35.7537C97.7394 35.5854 97.4754 35.3552 97.2791 35.0628C97.0862 34.7664 96.9902 34.4301 96.9902 34.0536C96.9902 33.7131 97.0545 33.4108 97.1822 33.1465C97.3108 32.8821 97.4994 32.6599 97.7471 32.4796C98 32.2954 98.3137 32.1573 98.6908 32.0652C99.0671 31.969 99.5034 31.921 99.9997 31.921H101.003Z" fill="black"/>
<path d="M105.784 26.6523V35.8795H104.055V26.6523H105.784ZM105.538 32.4013H105.064C105.068 31.9488 105.128 31.5322 105.244 31.1518C105.36 30.7673 105.526 30.4349 105.742 30.1546C105.959 29.8702 106.217 29.65 106.517 29.4938C106.822 29.3376 107.158 29.2595 107.527 29.2595C107.848 29.2595 108.137 29.3055 108.398 29.3977C108.662 29.4858 108.888 29.63 109.077 29.8302C109.269 30.0265 109.417 30.2847 109.522 30.6051C109.625 30.9255 109.678 31.314 109.678 31.7705V35.8795H107.935V31.7585C107.935 31.4702 107.893 31.2439 107.809 31.0797C107.729 30.9115 107.611 30.7934 107.455 30.7253C107.302 30.6532 107.115 30.6171 106.89 30.6171C106.642 30.6171 106.43 30.6633 106.253 30.7553C106.081 30.8475 105.943 30.9756 105.838 31.1398C105.735 31.2999 105.658 31.4882 105.61 31.7045C105.562 31.9208 105.538 32.1531 105.538 32.4013Z" fill="black"/>
<path d="M114.747 34.414V31.5185C114.747 31.3102 114.713 31.132 114.645 30.9838C114.576 30.8317 114.47 30.7136 114.326 30.6294C114.186 30.5453 114.004 30.5033 113.779 30.5033C113.587 30.5033 113.421 30.5373 113.281 30.6054C113.141 30.6695 113.033 30.7636 112.956 30.8877C112.88 31.0079 112.842 31.15 112.842 31.3143H111.113C111.113 31.0379 111.176 30.7756 111.305 30.5273C111.432 30.279 111.619 30.0608 111.864 29.8725C112.108 29.6803 112.398 29.5301 112.734 29.4219C113.075 29.3139 113.455 29.2598 113.875 29.2598C114.38 29.2598 114.828 29.3439 115.221 29.5121C115.614 29.6803 115.922 29.9326 116.147 30.269C116.375 30.6054 116.489 31.0259 116.489 31.5305V34.3119C116.489 34.6683 116.511 34.9606 116.555 35.189C116.599 35.4132 116.663 35.6095 116.748 35.7777V35.8797H114.999C114.915 35.7036 114.851 35.4833 114.807 35.219C114.767 34.9507 114.747 34.6823 114.747 34.414ZM114.975 31.921L114.987 32.9001H114.02C113.791 32.9001 113.593 32.9262 113.425 32.9782C113.257 33.0303 113.118 33.1044 113.01 33.2006C112.902 33.2926 112.823 33.4008 112.77 33.5249C112.722 33.6491 112.698 33.7852 112.698 33.9334C112.698 34.0816 112.733 34.2158 112.8 34.3359C112.868 34.4521 112.967 34.5441 113.094 34.6123C113.223 34.6763 113.373 34.7084 113.545 34.7084C113.806 34.7084 114.032 34.6563 114.224 34.5522C114.416 34.4481 114.564 34.3199 114.669 34.1677C114.777 34.0155 114.833 33.8714 114.837 33.7352L115.293 34.4681C115.23 34.6323 115.141 34.8025 115.029 34.9787C114.921 35.1549 114.783 35.3211 114.615 35.4773C114.446 35.6295 114.244 35.7556 114.008 35.8557C113.772 35.9518 113.491 35.9999 113.166 35.9999C112.754 35.9999 112.38 35.9178 112.044 35.7537C111.711 35.5854 111.447 35.3552 111.251 35.0628C111.058 34.7664 110.962 34.4301 110.962 34.0536C110.962 33.7131 111.026 33.4108 111.155 33.1465C111.282 32.8821 111.471 32.6599 111.719 32.4796C111.972 32.2954 112.286 32.1573 112.662 32.0652C113.039 31.969 113.475 31.921 113.972 31.921H114.975Z" fill="black"/>
<path d="M121.132 29.4717V30.5959H117.506V29.4717H121.132ZM118.477 28.218L120.027 27.4912V34.0273C120.027 34.2165 120.052 34.3625 120.103 34.465C120.154 34.5676 120.23 34.6366 120.331 34.6721C120.432 34.7076 120.553 34.7253 120.694 34.7253C120.795 34.7253 120.888 34.7194 120.975 34.7076C121.06 34.6958 121.132 34.6839 121.191 34.6721L121.197 35.8435C121.068 35.8869 120.922 35.9224 120.758 35.95C120.598 35.9776 120.417 35.9914 120.214 35.9914C119.866 35.9914 119.563 35.9323 119.302 35.8139C119.04 35.6917 118.837 35.4964 118.693 35.2282C118.549 34.9561 118.477 34.5972 118.477 34.1515V28.218Z" fill="#0F0F0F"/>
<path d="M124.308 29.2285V35.8721H122.682V29.2285H124.308Z" fill="#0F0F0F"/>
<path d="M122.682 26.8184H124.328V28.4649H122.682V26.8184Z" fill="#0F0F0F"/>
<path d="M0.857422 3.2598C0.857422 1.933 1.933 0.857422 3.2598 0.857422H39.5357C40.8624 0.857422 41.938 1.933 41.938 3.2598V44.7407C41.938 46.0676 40.8624 47.1431 39.5357 47.1431H3.2598C1.933 47.1431 0.857422 46.0676 0.857422 44.7407V3.2598Z" fill="black"/>
<path d="M15.752 2.21777H27.5235V13.7491H15.752V2.21777Z" fill="white"/>
<path d="M21.8927 5.11133V9.66581H21.2891V5.11133H21.8927Z" fill="#2379A7"/>
<path d="M5.10059 13.749H15.7511V25.841H5.10059V13.749Z" fill="#2379A7"/>
<path d="M27.5234 13.749H38.174V25.841H27.5234V13.749Z" fill="#2379A7"/>
<path d="M15.752 13.749H27.5235V25.841H15.752V13.749Z" fill="#2379A7"/>
<path d="M11.3261 21.2665V21.7576H8.91432V21.2665H11.3261ZM9.03638 17.2031V21.7576H8.43262V17.2031H9.03638ZM11.007 19.1614V19.6524H8.91432V19.1614H11.007ZM11.2948 17.2031V17.6974H8.91432V17.2031H11.2948Z" fill="white"/>
<path d="M34.8052 20.3094H35.4058C35.3745 20.5971 35.2922 20.8547 35.1587 21.082C35.0253 21.3093 34.8365 21.4897 34.5926 21.6232C34.3485 21.7545 34.0441 21.8203 33.6791 21.8203C33.4122 21.8203 33.1693 21.7702 32.9503 21.6701C32.7334 21.57 32.5467 21.4282 32.3904 21.2447C32.234 21.0591 32.113 20.837 32.0275 20.5784C31.9441 20.3177 31.9023 20.0278 31.9023 19.7088V19.2552C31.9023 18.9362 31.9441 18.6473 32.0275 18.3887C32.113 18.1281 32.235 17.9049 32.3935 17.7194C32.554 17.5337 32.747 17.3909 32.9721 17.2908C33.1974 17.1907 33.4508 17.1406 33.7323 17.1406C34.0764 17.1406 34.3673 17.2053 34.6051 17.3346C34.8428 17.4639 35.0273 17.6433 35.1587 17.8726C35.2922 18.0999 35.3745 18.3637 35.4058 18.664H34.8052C34.7761 18.4513 34.7218 18.2688 34.6425 18.1166C34.5633 17.9623 34.4507 17.8434 34.3047 17.76C34.1588 17.6766 33.968 17.6349 33.7323 17.6349C33.5301 17.6349 33.3517 17.6734 33.1974 17.7507C33.0452 17.8278 32.9169 17.9373 32.8126 18.079C32.7105 18.2209 32.6333 18.3909 32.5812 18.5889C32.529 18.787 32.5029 19.0071 32.5029 19.2489V19.7088C32.5029 19.9319 32.5259 20.1415 32.5718 20.3375C32.6198 20.5335 32.6917 20.7057 32.7876 20.8537C32.8835 21.0017 33.0056 21.1185 33.1536 21.204C33.3017 21.2875 33.4768 21.3291 33.6791 21.3291C33.9357 21.3291 34.14 21.2885 34.2922 21.2072C34.4445 21.1258 34.5591 21.0091 34.6363 20.8568C34.7156 20.7045 34.7719 20.5221 34.8052 20.3094Z" fill="white"/>
<path d="M20.7509 19.2307L21.4552 18.7207C21.5909 18.6265 21.6954 18.5322 21.7686 18.4379C21.8439 18.3414 21.8817 18.2098 21.8817 18.0431C21.8817 17.9137 21.8321 17.7964 21.733 17.6911C21.6339 17.5837 21.494 17.5299 21.3131 17.5299C21.1881 17.5299 21.0826 17.5595 20.9965 17.6187C20.9103 17.6779 20.8457 17.7569 20.8026 17.8556C20.7596 17.9521 20.7381 18.0584 20.7381 18.1747C20.7381 18.2734 20.7617 18.3754 20.8091 18.4807C20.8565 18.5859 20.9222 18.6955 21.0062 18.8096C21.0902 18.9236 21.186 19.0442 21.2937 19.1714L23.5196 21.8887L23.1315 22.1582L20.9771 19.6649C20.8155 19.4719 20.6713 19.2954 20.5442 19.1353C20.4171 18.973 20.3169 18.8161 20.2437 18.6649C20.1727 18.5136 20.1371 18.3567 20.1371 18.1945C20.1371 17.9444 20.1855 17.7339 20.2825 17.5628C20.3816 17.3896 20.5194 17.2579 20.6961 17.168C20.8726 17.0781 21.0794 17.0332 21.3163 17.0332C21.5468 17.0332 21.7449 17.0803 21.9107 17.1746C22.0787 17.2668 22.208 17.3896 22.2984 17.5431C22.3889 17.6944 22.4341 17.8611 22.4341 18.0431C22.4341 18.1966 22.4072 18.3348 22.3533 18.4576C22.2995 18.5782 22.2241 18.6889 22.1272 18.7898C22.0324 18.8907 21.9215 18.9895 21.7944 19.086L20.8608 19.7932C20.7057 19.9094 20.5926 20.0202 20.5215 20.1255C20.4505 20.2308 20.4042 20.3239 20.3826 20.4051C20.3632 20.4863 20.3535 20.5509 20.3535 20.5992C20.3535 20.7549 20.387 20.8975 20.4537 21.0269C20.5205 21.1562 20.6217 21.2605 20.7574 21.3394C20.8953 21.4161 21.0675 21.4545 21.2743 21.4545C21.4552 21.4545 21.6308 21.4129 21.8009 21.3295C21.9732 21.244 22.1272 21.1233 22.2629 20.9677C22.3986 20.8098 22.5063 20.6222 22.586 20.4051C22.6678 20.1858 22.7087 19.9435 22.7087 19.6781H23.245C23.245 19.8952 23.2245 20.1002 23.1837 20.2933C23.1427 20.4863 23.0792 20.6661 22.993 20.8327C22.909 20.9972 22.8014 21.1475 22.67 21.2834C22.6506 21.3031 22.6355 21.3262 22.6247 21.3525C22.6139 21.3788 22.5989 21.4019 22.5795 21.4216C22.418 21.5993 22.2188 21.733 21.9819 21.8229C21.7471 21.9107 21.5112 21.9546 21.2743 21.9546C20.962 21.9546 20.6917 21.8965 20.4634 21.7802C20.2372 21.6639 20.0628 21.5039 19.9401 21.2999C19.8173 21.096 19.7559 20.8624 19.7559 20.5992C19.7559 20.3974 19.7979 20.2198 19.8819 20.0663C19.968 19.9128 20.0854 19.7691 20.2341 19.6353C20.3848 19.5015 20.5571 19.3667 20.7509 19.2307Z" fill="white"/>
<path d="M15.752 25.8418H27.5235V37.3732H15.752V25.8418Z" fill="white"/>
<path d="M21.6165 28.6426V32.9694H21.0519V28.6426H21.6165ZM23.0073 28.6426V29.112H19.6641V28.6426H23.0073Z" fill="#2379A7"/>
<path d="M5.30444 39.7051V44.2596H4.36914V39.7051H5.30444Z" fill="white"/>
<path d="M7.30932 39.7051V44.2596H6.37402V39.7051H7.30932Z" fill="white"/>
<path d="M10.2591 39.7051V44.2596H9.32382V39.7051H10.2591ZM11.6605 39.7051V40.4402H7.94434V39.7051H11.6605Z" fill="white"/>
<path d="M16.8062 41.8794V43.6842C16.7353 43.7697 16.6258 43.8625 16.4778 43.9627C16.3297 44.0606 16.1389 44.1451 15.9054 44.216C15.6718 44.2869 15.3892 44.3224 15.0577 44.3224C14.7636 44.3224 14.4956 44.2744 14.2537 44.1785C14.0118 44.0804 13.8032 43.9376 13.6281 43.7499C13.455 43.5623 13.3215 43.3328 13.2277 43.0617C13.1339 42.7885 13.0869 42.4768 13.0869 42.1265V41.8418C13.0869 41.4914 13.1317 41.1797 13.2214 40.9065C13.3132 40.6333 13.4435 40.4028 13.6124 40.2152C13.7814 40.0275 13.9826 39.8846 14.2162 39.7866C14.4498 39.6886 14.7094 39.6396 14.9951 39.6396C15.3913 39.6396 15.7166 39.7043 15.971 39.8335C16.2254 39.9607 16.4194 40.138 16.5529 40.3653C16.6884 40.5906 16.7719 40.8492 16.8031 41.1411H15.8929C15.8699 40.9868 15.8261 40.8523 15.7615 40.7376C15.6968 40.6229 15.604 40.5332 15.4831 40.4686C15.3642 40.4039 15.2099 40.3716 15.0201 40.3716C14.8637 40.3716 14.724 40.4039 14.6009 40.4686C14.4799 40.5312 14.3778 40.6239 14.2944 40.747C14.211 40.87 14.1474 41.0222 14.1036 41.2037C14.0598 41.3851 14.0378 41.5957 14.0378 41.8356V42.1265C14.0378 42.3642 14.0608 42.5748 14.1067 42.7583C14.1526 42.9397 14.2203 43.093 14.31 43.2181C14.4018 43.3412 14.5144 43.434 14.6479 43.4965C14.7813 43.5591 14.9366 43.5904 15.1139 43.5904C15.262 43.5904 15.385 43.5779 15.4831 43.5529C15.5832 43.5278 15.6634 43.4976 15.7239 43.4622C15.7865 43.4246 15.8344 43.3891 15.8678 43.3558V42.5487H15.0107V41.8794H16.8062Z" fill="white"/>
<path d="M19.4441 43.4504V40.876H20.3449V44.2606H19.4972L19.4441 43.4504ZM19.5441 42.7559L19.8101 42.7497C19.8101 42.9749 19.7839 43.1845 19.7318 43.3784C19.6797 43.5703 19.6015 43.7371 19.4972 43.8789C19.393 44.0187 19.2616 44.1281 19.1031 44.2073C18.9446 44.2846 18.7579 44.3231 18.5431 44.3231C18.3784 44.3231 18.2261 44.3002 18.0864 44.2543C17.9488 44.2063 17.83 44.1323 17.7298 44.0322C17.6318 43.9301 17.5546 43.7997 17.4983 43.6412C17.4442 43.4807 17.417 43.2877 17.417 43.0625V40.876H18.3179V43.0687C18.3179 43.1688 18.3294 43.2533 18.3523 43.3221C18.3773 43.3909 18.4118 43.4472 18.4555 43.491C18.4993 43.5348 18.5504 43.5661 18.6089 43.5849C18.6693 43.6037 18.736 43.613 18.809 43.613C18.9947 43.613 19.1406 43.5755 19.247 43.5005C19.3554 43.4254 19.4315 43.3232 19.4753 43.1939C19.5212 43.0625 19.5441 42.9165 19.5441 42.7559Z" fill="white"/>
<path d="M21.9362 43.3847L22.64 40.876H23.2125L23.0279 41.8613L22.324 44.2606H21.8455L21.9362 43.3847ZM21.5796 40.876L22.0832 43.3816L22.1302 44.2606H21.5671L20.71 40.876H21.5796ZM23.8569 43.3409L24.3479 40.876H25.2207L24.3636 44.2606H23.8036L23.8569 43.3409ZM23.2906 40.876L23.9914 43.3659L24.0883 44.2606H23.6066L22.9028 41.8644L22.7245 40.876H23.2906Z" fill="white"/>
<path d="M27.4365 43.4964V41.9887C27.4365 41.8802 27.4187 41.7874 27.3833 41.7103C27.3478 41.631 27.2927 41.5695 27.2176 41.5257C27.1445 41.4819 27.0497 41.46 26.9329 41.46C26.8328 41.46 26.7462 41.4777 26.6733 41.5132C26.6002 41.5466 26.5439 41.5956 26.5043 41.6602C26.4647 41.7228 26.4449 41.7968 26.4449 41.8823H25.544C25.544 41.7384 25.5773 41.6018 25.6441 41.4725C25.7109 41.3432 25.8078 41.2296 25.935 41.1315C26.0622 41.0315 26.2134 40.9532 26.3886 40.8969C26.5659 40.8406 26.764 40.8125 26.983 40.8125C27.2457 40.8125 27.4793 40.8563 27.6836 40.9439C27.888 41.0315 28.0486 41.1628 28.1653 41.338C28.2842 41.5132 28.3437 41.7321 28.3437 41.9949V43.4432C28.3437 43.6288 28.3551 43.781 28.3781 43.8999C28.401 44.0167 28.4344 44.1189 28.4782 44.2064V44.2597H27.5679C27.5241 44.1679 27.4907 44.0532 27.4678 43.9155C27.4469 43.7758 27.4365 43.6361 27.4365 43.4964ZM27.5554 42.1982L27.5616 42.7082H27.058C26.9392 42.7082 26.8359 42.7217 26.7484 42.7488C26.6608 42.7759 26.5888 42.8144 26.5324 42.8645C26.4762 42.9125 26.4345 42.9688 26.4074 43.0334C26.3824 43.0981 26.3698 43.169 26.3698 43.2462C26.3698 43.3233 26.3875 43.3932 26.423 43.4558C26.4585 43.5162 26.5096 43.5642 26.5763 43.5996C26.643 43.633 26.7212 43.6496 26.8108 43.6496C26.9464 43.6496 27.0642 43.6226 27.1643 43.5684C27.2645 43.5141 27.3416 43.4474 27.3959 43.3682C27.4522 43.2889 27.4813 43.2139 27.4834 43.1429L27.7211 43.5246C27.6878 43.61 27.6419 43.6987 27.5836 43.7905C27.5272 43.8822 27.4553 43.9688 27.3677 44.0501C27.2801 44.1293 27.1748 44.195 27.0517 44.2472C26.9287 44.2972 26.7827 44.3222 26.6138 44.3222C26.399 44.3222 26.204 44.2795 26.0289 44.1939C25.8557 44.1064 25.7182 43.9865 25.616 43.8343C25.5159 43.6799 25.4658 43.5047 25.4658 43.3088C25.4658 43.1314 25.4992 42.974 25.5659 42.8364C25.6326 42.6987 25.7307 42.583 25.8599 42.4892C25.9913 42.3932 26.155 42.3212 26.3511 42.2733C26.5471 42.2233 26.7744 42.1982 27.033 42.1982H27.5554Z" fill="white"/>
<path d="M29.9536 39.4551V44.2599H29.0527V39.4551H29.9536ZM29.8254 42.4487H29.5782C29.5803 42.213 29.6116 41.9962 29.6721 41.7981C29.7325 41.5978 29.8191 41.4248 29.9317 41.2788C30.0444 41.1307 30.1788 41.016 30.3353 40.9347C30.4938 40.8533 30.6689 40.8127 30.8608 40.8127C31.0276 40.8127 31.1788 40.8367 31.3143 40.8846C31.452 40.9306 31.5698 41.0056 31.6678 41.1099C31.7679 41.212 31.845 41.3465 31.8993 41.5134C31.9535 41.6802 31.9806 41.8825 31.9806 42.1203V44.2599H31.0734V42.114C31.0734 41.9639 31.0516 41.846 31.0078 41.7605C30.966 41.6729 30.9046 41.6114 30.8232 41.576C30.744 41.5384 30.646 41.5197 30.5292 41.5197C30.3999 41.5197 30.2893 41.5437 30.1976 41.5916C30.108 41.6396 30.036 41.7063 29.9818 41.7918C29.9275 41.8752 29.8879 41.9732 29.8629 42.0858C29.8379 42.1984 29.8254 42.3194 29.8254 42.4487Z" fill="white"/>
<path d="M34.4922 43.4964V41.9887C34.4922 41.8802 34.4745 41.7874 34.439 41.7103C34.4036 41.631 34.3483 41.5695 34.2732 41.5257C34.2003 41.4819 34.1054 41.46 33.9886 41.46C33.8885 41.46 33.802 41.4777 33.7289 41.5132C33.656 41.5466 33.5997 41.5956 33.56 41.6602C33.5204 41.7228 33.5006 41.7968 33.5006 41.8823H32.5997C32.5997 41.7384 32.6331 41.6018 32.6998 41.4725C32.7665 41.3432 32.8635 41.2296 32.9907 41.1315C33.118 41.0315 33.2691 40.9532 33.4443 40.8969C33.6215 40.8406 33.8196 40.8125 34.0386 40.8125C34.3014 40.8125 34.535 40.8563 34.7393 40.9439C34.9437 41.0315 35.1042 41.1628 35.2211 41.338C35.3399 41.5132 35.3993 41.7321 35.3993 41.9949V43.4432C35.3993 43.6288 35.4108 43.781 35.4338 43.8999C35.4567 44.0167 35.49 44.1189 35.5338 44.2064V44.2597H34.6236C34.5798 44.1679 34.5464 44.0532 34.5235 43.9155C34.5026 43.7758 34.4922 43.6361 34.4922 43.4964ZM34.6111 42.1982L34.6174 42.7082H34.1137C33.9948 42.7082 33.8916 42.7217 33.804 42.7488C33.7164 42.7759 33.6445 42.8144 33.5882 42.8645C33.5319 42.9125 33.4901 42.9688 33.4631 43.0334C33.438 43.0981 33.4255 43.169 33.4255 43.2462C33.4255 43.3233 33.4433 43.3932 33.4787 43.4558C33.5141 43.5162 33.5652 43.5642 33.632 43.5996C33.6987 43.633 33.7769 43.6496 33.8666 43.6496C34.0021 43.6496 34.12 43.6226 34.2201 43.5684C34.3202 43.5141 34.3973 43.4474 34.4515 43.3682C34.5078 43.2889 34.5371 43.2139 34.5391 43.1429L34.7769 43.5246C34.7435 43.61 34.6976 43.6987 34.6392 43.7905C34.5829 43.8822 34.511 43.9688 34.4234 44.0501C34.3358 44.1293 34.2305 44.195 34.1075 44.2472C33.9844 44.2972 33.8384 44.3222 33.6695 44.3222C33.4547 44.3222 33.2597 44.2795 33.0845 44.1939C32.9115 44.1064 32.7738 43.9865 32.6717 43.8343C32.5715 43.6799 32.5215 43.5047 32.5215 43.3088C32.5215 43.1314 32.5549 42.974 32.6216 42.8364C32.6884 42.6987 32.7863 42.583 32.9157 42.4892C33.047 42.3932 33.2107 42.3212 33.4067 42.2733C33.6028 42.2233 33.8301 42.1982 34.0887 42.1982H34.6111Z" fill="white"/>
<path d="M38.8144 40.8965V44.2598H37.9336V40.8965H38.8144Z" fill="white"/>
<path d="M37.4196 40.8816V41.4641H35.5312V40.8816H37.4196ZM36.0369 40.232L36.844 39.8555V43.242C36.844 43.3402 36.8572 43.4158 36.8836 43.4689C36.91 43.5221 36.9496 43.5578 37.0024 43.5762C37.0552 43.5946 37.1181 43.6038 37.1912 43.6038C37.244 43.6038 37.2928 43.6008 37.3374 43.5946C37.3821 43.5885 37.4196 43.5823 37.4501 43.5762L37.4531 44.1832C37.3861 44.2056 37.31 44.2241 37.2247 44.2383C37.1415 44.2526 37.047 44.2598 36.9414 44.2598C36.7607 44.2598 36.6023 44.2291 36.4663 44.1678C36.3303 44.1045 36.2247 44.0034 36.1495 43.8643C36.0744 43.7233 36.0369 43.5373 36.0369 43.3064V40.232Z" fill="white"/>
<path d="M37.9336 39.6152H38.8144V40.4961H37.9336V39.6152Z" fill="white"/>
</g>
<defs>
<clipPath id="clip0_407_99">
<rect width="147" height="48" fill="white"/>
</clipPath>
</defs>
</svg>
